<?xml version="1.0" encoding="UTF-8" standalone="no"?>
<!DOCTYPE svg PUBLIC "-//W3C//DTD SVG 1.1//EN"
 "http://www.w3.org/Graphics/SVG/1.1/DTD/svg11.dtd">
<!-- Generated by graphviz version 2.40.1 (0)
 -->
<!-- Title: SgHeaderFileReport Pages: 1 -->
<!--zoomable 592 -->

<svg id="main" version="1.1" xmlns="http://www.w3.org/2000/svg" xmlns:xlink="http://www.w3.org/1999/xlink" xml:space="preserve" onload="init(evt)">
<style type="text/css"><![CDATA[
.node, .edge {opacity: 0.7;}
.node.selected, .edge.selected {opacity: 1;}
.edge:hover path { stroke: red; }
.edge:hover polygon { stroke: red; fill: red; }
]]></style>

<defs>
  <circle id="rim" cx="0" cy="0" r="7"/>
  <circle id="rim2" cx="0" cy="0" r="3.5"/>
  <g id="zoomPlus">
    <use xlink:href="#rim" fill="#404040"><set attributeName="fill" to="#808080" begin="zoomplus.mouseover" end="zoomplus.mouseout"/></use>
    <path d="M-4,0h8M0,-4v8" fill="none" stroke="white" stroke-width="1.5" pointer-events="none"/>
  </g>
  <g id="zoomMin">
    <use xlink:href="#rim" fill="#404040"><set attributeName="fill" to="#808080" begin="zoomminus.mouseover" end="zoomminus.mouseout"/></use>
    <path d="M-4,0h8" fill="none" stroke="white" stroke-width="1.5" pointer-events="none"/>
  </g>
  <g id="arrowUp" transform="translate(30 24)">
    <use xlink:href="#rim"/>
    <path pointer-events="none" fill="none" stroke="white" stroke-width="1.5" d="M0,-3.0v7 M-2.5,-0.5L0,-3.0L2.5,-0.5"/>
  </g>
  <g id="arrowRight" transform="rotate(90) translate(36 -43)">
    <use xlink:href="#rim"/>
    <path pointer-events="none" fill="none" stroke="white" stroke-width="1.5" d="M0,-3.0v7 M-2.5,-0.5L0,-3.0L2.5,-0.5"/>
  </g>
  <g id="arrowDown" transform="rotate(180) translate(-30 -48)">
    <use xlink:href="#rim"/>
    <path pointer-events="none" fill="none" stroke="white" stroke-width="1.5" d="M0,-3.0v7 M-2.5,-0.5L0,-3.0L2.5,-0.5"/>
  </g>
  <g id="arrowLeft" transform="rotate(270) translate(-36 17)">
    <use xlink:href="#rim"/>
    <path pointer-events="none" fill="none" stroke="white" stroke-width="1.5" d="M0,-3.0v7 M-2.5,-0.5L0,-3.0L2.5,-0.5"/>
  </g>
  <g id="resetDef">
    <use xlink:href="#rim2" fill="#404040"><set attributeName="fill" to="#808080" begin="reset.mouseover" end="reset.mouseout"/></use>
  </g>
</defs>
<script type="application/ecmascript">
var viewWidth = 1248;
var viewHeight = 592;
var sectionId = 'dynsection-1';
</script>
<script type="application/ecmascript" xlink:href="svg.min.js"/>
<svg id="graph" class="graph">
<g id="viewport">
<title>SgHeaderFileReport</title>
<!-- Node1 -->
<g id="Node000001" class="node">
<title>Node1</title>
<g id="a_Node000001"><a xlink:title=" ">
<polygon fill="#999999" stroke="#666666" points="704,-541.5 599,-541.5 599,-522.5 704,-522.5 704,-541.5"/>
<text text-anchor="middle" x="651.5" y="-529.5" font-family="Helvetica,sans-Serif" font-size="10.00" fill="#000000">SgHeaderFileReport</text>
</a>
</g>
</g>
<!-- Node69 -->
<g id="Node000069" class="node">
<title>Node69</title>
<g id="a_Node000069"><a xlink:href="classSgSourceFile.html" target="_top" xlink:title=" ">
<polygon fill="#ffffff" stroke="#bfbfbf" points="940,-358.5 865,-358.5 865,-339.5 940,-339.5 940,-358.5"/>
<text text-anchor="middle" x="902.5" y="-346.5" font-family="Helvetica,sans-Serif" font-size="10.00" fill="#000000">SgSourceFile</text>
</a>
</g>
</g>
<!-- Node1&#45;&gt;Node69 -->
<g id="edge20_Node000069_Node000001" class="edge">
<title>Node1&#45;&gt;Node69</title>
<g id="a_edge20_Node000069_Node000001"><a xlink:title=" ">
<path fill="none" stroke="#9a32cd" stroke-dasharray="5,2" d="M713.8405,-520.4981C718.1057,-518.6457 722.209,-516.4956 726,-514 737.1369,-506.6687 732.7541,-497.163 744,-490 782.3038,-465.6025 808.1818,-496.9191 844,-469 881.1082,-440.0754 896.1499,-381.5675 900.7875,-358.5813"/>
<polygon fill="#9a32cd" stroke="#9a32cd" points="712.424,-517.2916 704.3032,-524.0963 714.895,-523.841 712.424,-517.2916"/>
</a>
</g>
<text text-anchor="middle" x="794" y="-493" font-family="Helvetica,sans-Serif" font-size="10.00" fill="#c0c0c0"> p_headerFileReport</text>
</g>
<!-- Node2 -->
<g id="Node000002" class="node">
<title>Node2</title>
<g id="a_Node000002"><a xlink:href="classSgSupport.html" target="_top" xlink:title="This class represents the base class of a numbr of IR nodes that don&#39;t otherwise fit into the existin...">
<polygon fill="#ffffff" stroke="#666666" points="333.5,-502.5 271.5,-502.5 271.5,-483.5 333.5,-483.5 333.5,-502.5"/>
<text text-anchor="middle" x="302.5" y="-490.5" font-family="Helvetica,sans-Serif" font-size="10.00" fill="#000000">SgSupport</text>
</a>
</g>
</g>
<!-- Node2&#45;&gt;Node1 -->
<g id="edge1_Node000001_Node000002" class="edge">
<title>Node2&#45;&gt;Node1</title>
<g id="a_edge1_Node000001_Node000002"><a xlink:title=" ">
<path fill="none" stroke="#63b8ff" d="M343.9248,-500.8523C356.4481,-503.051 370.2571,-505.3014 383,-507 457.7133,-516.9591 544.6492,-524.2796 598.8831,-528.3413"/>
<polygon fill="#63b8ff" stroke="#63b8ff" points="344.2197,-497.3494 333.7592,-499.0308 342.9851,-504.2397 344.2197,-497.3494"/>
</a>
</g>
</g>
<!-- Node70 -->
<g id="Node000070" class="node">
<title>Node70</title>
<g id="a_Node000070"><a xlink:href="classSgFile.html" target="_top" xlink:title="This class represents a source file for a project (which may contian many source files and or directo...">
<polygon fill="#fff0f0" stroke="#ff0000" points="673.5,-335.5 629.5,-335.5 629.5,-316.5 673.5,-316.5 673.5,-335.5"/>
<text text-anchor="middle" x="651.5" y="-323.5" font-family="Helvetica,sans-Serif" font-size="10.00" fill="#000000">SgFile</text>
</a>
</g>
</g>
<!-- Node2&#45;&gt;Node70 -->
<g id="edge6_Node000070_Node000002" class="edge">
<title>Node2&#45;&gt;Node70</title>
<g id="a_edge6_Node000070_Node000002"><a xlink:title=" ">
<path fill="none" stroke="#63b8ff" d="M313.1737,-474.6487C326.6863,-453.0546 351.984,-417.6584 383,-398 463.9153,-346.7148 580.7791,-331.6731 629.1944,-327.5034"/>
<polygon fill="#63b8ff" stroke="#63b8ff" points="310.1608,-472.8672 307.9688,-483.2328 316.1465,-476.4966 310.1608,-472.8672"/>
</a>
</g>
</g>
<!-- Node90 -->
<g id="Node000090" class="node">
<title>Node90</title>
<g id="a_Node000090"><a xlink:href="classSgJavaImportStatementList.html" target="_top" xlink:title=" ">
<polygon fill="#ffffff" stroke="#ff4500" points="720.5,-504.5 582.5,-504.5 582.5,-485.5 720.5,-485.5 720.5,-504.5"/>
<text text-anchor="middle" x="651.5" y="-492.5" font-family="Helvetica,sans-Serif" font-size="10.00" fill="#000000">SgJavaImportStatementList</text>
</a>
</g>
</g>
<!-- Node2&#45;&gt;Node90 -->
<g id="edge17_Node000090_Node000002" class="edge">
<title>Node2&#45;&gt;Node90</title>
<g id="a_edge17_Node000090_Node000002"><a xlink:title=" ">
<path fill="none" stroke="#63b8ff" d="M343.8068,-493.2367C402.5705,-493.5735 511.0545,-494.1952 582.2404,-494.6031"/>
<polygon fill="#63b8ff" stroke="#63b8ff" points="343.7985,-489.7367 333.7786,-493.1792 343.7583,-496.7366 343.7985,-489.7367"/>
</a>
</g>
</g>
<!-- Node93 -->
<g id="Node000093" class="node">
<title>Node93</title>
<g id="a_Node000093"><a xlink:href="classSgJavaClassDeclarationList.html" target="_top" xlink:title=" ">
<polygon fill="#ffffff" stroke="#ff4500" points="721.5,-467.5 581.5,-467.5 581.5,-448.5 721.5,-448.5 721.5,-467.5"/>
<text text-anchor="middle" x="651.5" y="-455.5" font-family="Helvetica,sans-Serif" font-size="10.00" fill="#000000">SgJavaClassDeclarationList</text>
</a>
</g>
</g>
<!-- Node2&#45;&gt;Node93 -->
<g id="edge19_Node000093_Node000002" class="edge">
<title>Node2&#45;&gt;Node93</title>
<g id="a_edge19_Node000093_Node000002"><a xlink:title=" ">
<path fill="none" stroke="#63b8ff" d="M343.759,-488.8623C402.2308,-482.9983 509.9987,-472.1907 581.2166,-465.0485"/>
<polygon fill="#63b8ff" stroke="#63b8ff" points="343.3794,-485.3827 333.7786,-489.8632 344.0779,-492.3478 343.3794,-485.3827"/>
</a>
</g>
</g>
<!-- Node95 -->
<g id="Node000095" class="node">
<title>Node95</title>
<g id="a_Node000095"><a xlink:href="classSgIncludeFile.html" target="_top" xlink:title=" ">
<polygon fill="#ffffff" stroke="#ff4500" points="1205,-498.5 1129,-498.5 1129,-479.5 1205,-479.5 1205,-498.5"/>
<text text-anchor="middle" x="1167" y="-486.5" font-family="Helvetica,sans-Serif" font-size="10.00" fill="#000000">SgIncludeFile</text>
</a>
</g>
</g>
<!-- Node2&#45;&gt;Node95 -->
<g id="edge23_Node000095_Node000002" class="edge">
<title>Node2&#45;&gt;Node95</title>
<g id="a_edge23_Node000095_Node000002"><a xlink:title=" ">
<path fill="none" stroke="#63b8ff" d="M328.7419,-507.211C344.1191,-514.9008 364.1659,-523.8539 383,-529 466.7065,-551.8714 490.4653,-544.5485 577,-551 798.1658,-567.4888 864.7035,-616.3793 1076,-549 1108.813,-538.5364 1140.9643,-512.6248 1156.8101,-498.519"/>
<polygon fill="#63b8ff" stroke="#63b8ff" points="330.318,-504.0859 319.8235,-502.6315 327.1205,-510.3129 330.318,-504.0859"/>
</a>
</g>
</g>
<!-- Node3 -->
<g id="Node000003" class="node">
<title>Node3</title>
<g id="a_Node000003"><a xlink:href="classSgNode.html" target="_top" xlink:title="This class represents the base class for all IR nodes within Sage III.">
<polygon fill="#fff0f0" stroke="#ff0000" points="69.5,-483.5 17.5,-483.5 17.5,-464.5 69.5,-464.5 69.5,-483.5"/>
<text text-anchor="middle" x="43.5" y="-471.5" font-family="Helvetica,sans-Serif" font-size="10.00" fill="#000000">SgNode</text>
</a>
</g>
</g>
<!-- Node3&#45;&gt;Node2 -->
<g id="edge2_Node000002_Node000003" class="edge">
<title>Node3&#45;&gt;Node2</title>
<g id="a_edge2_Node000002_Node000003"><a xlink:title=" ">
<path fill="none" stroke="#63b8ff" d="M80.0244,-476.6794C131.1839,-480.4324 223.294,-487.1895 271.3732,-490.7166"/>
<polygon fill="#63b8ff" stroke="#63b8ff" points="79.9889,-473.1675 69.7596,-475.9264 79.4767,-480.1487 79.9889,-473.1675"/>
</a>
</g>
</g>
<!-- Node3&#45;&gt;Node3 -->
<g id="edge3_Node000003_Node000003" class="edge">
<title>Node3&#45;&gt;Node3</title>
<g id="a_edge3_Node000003_Node000003"><a xlink:title=" ">
<path fill="none" stroke="#9a32cd" stroke-dasharray="5,2" d="M21.2789,-493.0536C22.7629,-497.8804 30.1699,-501.5 43.5,-501.5 64.8281,-501.5 70.9933,-492.2337 61.9955,-483.5828"/>
<polygon fill="#9a32cd" stroke="#9a32cd" points="24.6007,-494.17 25.0045,-483.5828 18.0866,-491.6074 24.6007,-494.17"/>
</a>
</g>
<text text-anchor="middle" x="43.5" y="-515.5" font-family="Helvetica,sans-Serif" font-size="10.00" fill="#c0c0c0"> p_freepointer</text>
<text text-anchor="middle" x="43.5" y="-504.5" font-family="Helvetica,sans-Serif" font-size="10.00" fill="#c0c0c0">p_parent</text>
</g>
<!-- Node97 -->
<g id="Node000097" class="node">
<title>Node97</title>
<g id="a_Node000097"><a xlink:title=" ">
<polygon fill="#ffffff" stroke="#666666" points="364,-381.5 241,-381.5 241,-362.5 364,-362.5 364,-381.5"/>
<text text-anchor="middle" x="302.5" y="-369.5" font-family="Helvetica,sans-Serif" font-size="10.00" fill="#000000">std::vector&lt; SgNode * &gt;</text>
</a>
</g>
</g>
<!-- Node3&#45;&gt;Node97 -->
<g id="edge28_Node000097_Node000003" class="edge">
<title>Node3&#45;&gt;Node97</title>
<g id="a_edge28_Node000097_Node000003"><a xlink:title=" ">
<path fill="none" stroke="#9a32cd" stroke-dasharray="5,2" d="M79.6548,-466.0175C124.1137,-455.9357 196.7823,-438.5172 222,-427 248.7898,-414.7648 276.3512,-393.7532 291.2591,-381.548"/>
<polygon fill="#9a32cd" stroke="#9a32cd" points="78.8014,-462.6219 69.8148,-468.2336 80.3394,-469.4509 78.8014,-462.6219"/>
</a>
</g>
<text text-anchor="middle" x="163.5" y="-462" font-family="Helvetica,sans-Serif" font-size="10.00" fill="#c0c0c0"> elements</text>
</g>
<!-- Node69&#45;&gt;Node1 -->
<g id="edge4_Node000001_Node000069" class="edge">
<title>Node69&#45;&gt;Node1</title>
<g id="a_edge4_Node000001_Node000069"><a xlink:title=" ">
<path fill="none" stroke="#9a32cd" stroke-dasharray="5,2" d="M895.7611,-368.2766C881.5827,-408.6079 849.5179,-498.5502 844,-503 833.2135,-511.6985 757.2451,-521.1536 704.0359,-526.8261"/>
<polygon fill="#9a32cd" stroke="#9a32cd" points="899.0956,-369.3442 899.1019,-358.7493 892.49,-367.0278 899.0956,-369.3442"/>
</a>
</g>
<text text-anchor="middle" x="794" y="-524" font-family="Helvetica,sans-Serif" font-size="10.00" fill="#c0c0c0"> p_source_file</text>
</g>
<!-- Node69&#45;&gt;Node95 -->
<g id="edge24_Node000095_Node000069" class="edge">
<title>Node69&#45;&gt;Node95</title>
<g id="a_edge24_Node000095_Node000069"><a xlink:title=" ">
<path fill="none" stroke="#9a32cd" stroke-dasharray="5,2" d="M907.7208,-368.5633C915.2509,-392.7367 931.5952,-433.2116 961,-454 1010.9121,-489.2865 1084.3653,-493.2848 1128.7464,-491.8956"/>
<polygon fill="#9a32cd" stroke="#9a32cd" points="911.016,-367.3601 904.866,-358.733 904.2938,-369.3124 911.016,-367.3601"/>
</a>
</g>
<text text-anchor="start" x="975" y="-537" font-family="Helvetica,sans-Serif" font-size="10.00" fill="#c0c0c0"> p_including_source</text>
<text text-anchor="middle" x="1018.5" y="-526" font-family="Helvetica,sans-Serif" font-size="10.00" fill="#c0c0c0">_file</text>
<text text-anchor="middle" x="1018.5" y="-515" font-family="Helvetica,sans-Serif" font-size="10.00" fill="#c0c0c0">p_source_file</text>
<text text-anchor="start" x="975" y="-504" font-family="Helvetica,sans-Serif" font-size="10.00" fill="#c0c0c0">p_source_file_of</text>
<text text-anchor="middle" x="1018.5" y="-493" font-family="Helvetica,sans-Serif" font-size="10.00" fill="#c0c0c0">_translation_unit</text>
</g>
<!-- Node98 -->
<g id="Node000098" class="node">
<title>Node98</title>
<g id="a_Node000098"><a xlink:title=" ">
<polygon fill="#ffffff" stroke="#666666" points="1240,-42.5 1094,-42.5 1094,-23.5 1240,-23.5 1240,-42.5"/>
<text text-anchor="middle" x="1167" y="-30.5" font-family="Helvetica,sans-Serif" font-size="10.00" fill="#000000">std::vector&lt; SgSourceFile * &gt;</text>
</a>
</g>
</g>
<!-- Node69&#45;&gt;Node98 -->
<g id="edge32_Node000098_Node000069" class="edge">
<title>Node69&#45;&gt;Node98</title>
<g id="a_edge32_Node000098_Node000069"><a xlink:title=" ">
<path fill="none" stroke="#9a32cd" stroke-dasharray="5,2" d="M917.38,-331.2228C966.3676,-272.6969 1121.6023,-87.2369 1158.8897,-42.6894"/>
<polygon fill="#9a32cd" stroke="#9a32cd" points="914.4407,-329.2814 910.706,-339.1962 919.8085,-333.7744 914.4407,-329.2814"/>
</a>
</g>
<text text-anchor="middle" x="1018.5" y="-275" font-family="Helvetica,sans-Serif" font-size="10.00" fill="#c0c0c0"> elements</text>
</g>
<!-- Node70&#45;&gt;Node69 -->
<g id="edge5_Node000069_Node000070" class="edge">
<title>Node70&#45;&gt;Node69</title>
<g id="a_edge5_Node000069_Node000070"><a xlink:title=" ">
<path fill="none" stroke="#63b8ff" d="M683.8924,-328.9682C730.375,-333.2276 815.7984,-341.0552 864.9715,-345.5611"/>
<polygon fill="#63b8ff" stroke="#63b8ff" points="684.0523,-325.4683 673.7746,-328.0411 683.4134,-332.4391 684.0523,-325.4683"/>
</a>
</g>
</g>
<!-- Node71 -->
<g id="Node000071" class="node">
<title>Node71</title>
<g id="a_Node000071"><a xlink:title=" ">
<polygon fill="#ffffff" stroke="#ff4500" points="365,-224.5 240,-224.5 240,-205.5 365,-205.5 365,-224.5"/>
<text text-anchor="middle" x="302.5" y="-212.5" font-family="Helvetica,sans-Serif" font-size="10.00" fill="#000000">std::vector&lt; std::string &gt;</text>
</a>
</g>
</g>
<!-- Node71&#45;&gt;Node69 -->
<g id="edge21_Node000069_Node000071" class="edge">
<title>Node71&#45;&gt;Node69</title>
<g id="a_edge21_Node000069_Node000071"><a xlink:title=" ">
<path fill="none" stroke="#9a32cd" stroke-dasharray="5,2" d="M329.8025,-200.9286C345.2418,-193.1858 365.0029,-183.6301 383,-176 526.3269,-115.2344 573.2193,-75.1149 726,-105 781.5644,-115.8688 805.9385,-111.0852 844,-153 870.0212,-181.6555 894.1468,-303.6382 900.7358,-339.2204"/>
<polygon fill="#9a32cd" stroke="#9a32cd" points="328.1454,-197.8445 320.8023,-205.482 331.3054,-204.0907 328.1454,-197.8445"/>
</a>
</g>
<text text-anchor="start" x="579" y="-141" font-family="Helvetica,sans-Serif" font-size="10.00" fill="#c0c0c0"> p_extraIncludeDirectorySpecifier</text>
<text text-anchor="middle" x="651.5" y="-130" font-family="Helvetica,sans-Serif" font-size="10.00" fill="#c0c0c0">AfterList</text>
<text text-anchor="start" x="579" y="-119" font-family="Helvetica,sans-Serif" font-size="10.00" fill="#c0c0c0">p_extraIncludeDirectorySpecifier</text>
<text text-anchor="middle" x="651.5" y="-108" font-family="Helvetica,sans-Serif" font-size="10.00" fill="#c0c0c0">BeforeList</text>
</g>
<!-- Node71&#45;&gt;Node70 -->
<g id="edge7_Node000070_Node000071" class="edge">
<title>Node71&#45;&gt;Node70</title>
<g id="a_edge7_Node000070_Node000071"><a xlink:title=" ">
<path fill="none" stroke="#9a32cd" stroke-dasharray="5,2" d="M336.8754,-202.0417C390.8712,-184.1485 495.8985,-159.6304 559,-212 592.4045,-239.7233 547.1083,-276.5209 577,-308 590.3772,-322.0876 612.7276,-325.9611 629.4652,-326.689"/>
<polygon fill="#9a32cd" stroke="#9a32cd" points="335.4194,-198.8409 327.0962,-205.3964 337.6909,-205.4621 335.4194,-198.8409"/>
</a>
</g>
<text text-anchor="start" x="389.5" y="-237" font-family="Helvetica,sans-Serif" font-size="10.00" fill="#c0c0c0"> p_libraryArchiveObjectFile</text>
<text text-anchor="middle" x="471" y="-226" font-family="Helvetica,sans-Serif" font-size="10.00" fill="#c0c0c0">NameList</text>
<text text-anchor="middle" x="471" y="-215" font-family="Helvetica,sans-Serif" font-size="10.00" fill="#c0c0c0">p_originalCommandLineArgumentList</text>
</g>
<!-- Node5 -->
<g id="Node000005" class="node">
<title>Node5</title>
<g id="a_Node000005"><a xlink:title=" ">
<polygon fill="#fff0f0" stroke="#ff0000" points="87,-272.5 0,-272.5 0,-253.5 87,-253.5 87,-272.5"/>
<text text-anchor="middle" x="43.5" y="-260.5" font-family="Helvetica,sans-Serif" font-size="10.00" fill="#000000">std::vector&lt; T &gt;</text>
</a>
</g>
</g>
<!-- Node5&#45;&gt;Node71 -->
<g id="edge8_Node000071_Node000005" class="edge">
<title>Node5&#45;&gt;Node71</title>
<g id="a_edge8_Node000071_Node000005"><a xlink:title=" ">
<path fill="none" stroke="#ffa500" stroke-dasharray="5,2" d="M66.1143,-247.9255C77.3311,-241.232 91.3697,-233.9807 105,-230 148.9008,-217.1789 200.4936,-213.631 239.9367,-213.1815"/>
<polygon fill="#ffa500" stroke="#ffa500" points="64.0671,-245.0771 57.4267,-253.3327 67.766,-251.02 64.0671,-245.0771"/>
</a>
</g>
<text text-anchor="middle" x="163.5" y="-233" font-family="Helvetica,sans-Serif" font-size="10.00" fill="#c0c0c0"> &lt; std::string &gt;</text>
</g>
<!-- Node77 -->
<g id="Node000077" class="node">
<title>Node77</title>
<g id="a_Node000077"><a xlink:title=" ">
<polygon fill="#ffffff" stroke="#ff4500" points="559,-425.5 383,-425.5 383,-406.5 559,-406.5 559,-425.5"/>
<text text-anchor="middle" x="471" y="-413.5" font-family="Helvetica,sans-Serif" font-size="10.00" fill="#000000">std::vector&lt; SgModuleStatement * &gt;</text>
</a>
</g>
</g>
<!-- Node5&#45;&gt;Node77 -->
<g id="edge12_Node000077_Node000005" class="edge">
<title>Node5&#45;&gt;Node77</title>
<g id="a_edge12_Node000077_Node000005"><a xlink:title=" ">
<path fill="none" stroke="#ffa500" stroke-dasharray="5,2" d="M51.8113,-281.599C61.6899,-301.62 80.0335,-333.0081 105,-351 186.1537,-409.4826 303.2082,-420.975 382.9395,-420.94"/>
<polygon fill="#ffa500" stroke="#ffa500" points="54.9712,-280.0939 47.5381,-272.5442 48.6408,-283.0815 54.9712,-280.0939"/>
</a>
</g>
<text text-anchor="middle" x="163.5" y="-403" font-family="Helvetica,sans-Serif" font-size="10.00" fill="#c0c0c0"> &lt; SgModuleStatement * &gt;</text>
</g>
<!-- Node86 -->
<g id="Node000086" class="node">
<title>Node86</title>
<g id="a_Node000086"><a xlink:title=" ">
<polygon fill="#ffffff" stroke="#ff4500" points="534,-272.5 408,-272.5 408,-253.5 534,-253.5 534,-272.5"/>
<text text-anchor="middle" x="471" y="-260.5" font-family="Helvetica,sans-Serif" font-size="10.00" fill="#000000">std::vector&lt; SgToken * &gt;</text>
</a>
</g>
</g>
<!-- Node5&#45;&gt;Node86 -->
<g id="edge14_Node000086_Node000005" class="edge">
<title>Node5&#45;&gt;Node86</title>
<g id="a_edge14_Node000086_Node000005"><a xlink:title=" ">
<path fill="none" stroke="#ffa500" stroke-dasharray="5,2" d="M97.4689,-263C176.5429,-263 323.5897,-263 407.6702,-263"/>
<polygon fill="#ffa500" stroke="#ffa500" points="97.241,-259.5001 87.241,-263 97.2409,-266.5001 97.241,-259.5001"/>
</a>
</g>
<text text-anchor="middle" x="163.5" y="-266" font-family="Helvetica,sans-Serif" font-size="10.00" fill="#c0c0c0"> &lt; SgToken * &gt;</text>
</g>
<!-- Node5&#45;&gt;Node97 -->
<g id="edge29_Node000097_Node000005" class="edge">
<title>Node5&#45;&gt;Node97</title>
<g id="a_edge29_Node000097_Node000005"><a xlink:title=" ">
<path fill="none" stroke="#ffa500" stroke-dasharray="5,2" d="M75.7742,-276.5826C128.8651,-298.9258 233.3404,-342.8942 279.567,-362.3487"/>
<polygon fill="#ffa500" stroke="#ffa500" points="77.0592,-273.3261 66.4845,-272.673 74.3439,-279.778 77.0592,-273.3261"/>
</a>
</g>
<text text-anchor="middle" x="163.5" y="-339" font-family="Helvetica,sans-Serif" font-size="10.00" fill="#c0c0c0"> &lt; SgNode * &gt;</text>
</g>
<!-- Node5&#45;&gt;Node98 -->
<g id="edge33_Node000098_Node000005" class="edge">
<title>Node5&#45;&gt;Node98</title>
<g id="a_edge33_Node000098_Node000005"><a xlink:title=" ">
<path fill="none" stroke="#ffa500" stroke-dasharray="5,2" d="M51.1707,-243.8066C76.7878,-183.2173 165.5724,0 302.5,0 302.5,0 302.5,0 902.5,0 978.8557,0 1066.6628,-13.7089 1119.4401,-23.455"/>
<polygon fill="#ffa500" stroke="#ffa500" points="47.821,-242.7487 47.2428,-253.3278 54.292,-245.4183 47.821,-242.7487"/>
</a>
</g>
<text text-anchor="middle" x="651.5" y="-3" font-family="Helvetica,sans-Serif" font-size="10.00" fill="#c0c0c0"> &lt; SgSourceFile * &gt;</text>
</g>
<!-- Node73 -->
<g id="Node000073" class="node">
<title>Node73</title>
<g id="a_Node000073"><a xlink:title=" ">
<polygon fill="#ffffff" stroke="#ff4500" points="709,-298.5 594,-298.5 594,-279.5 709,-279.5 709,-298.5"/>
<text text-anchor="middle" x="651.5" y="-286.5" font-family="Helvetica,sans-Serif" font-size="10.00" fill="#000000">std::list&lt; token_type &gt;</text>
</a>
</g>
</g>
<!-- Node73&#45;&gt;Node69 -->
<g id="edge9_Node000069_Node000073" class="edge">
<title>Node73&#45;&gt;Node69</title>
<g id="a_edge9_Node000069_Node000073"><a xlink:title=" ">
<path fill="none" stroke="#9a32cd" stroke-dasharray="5,2" d="M719.3427,-294.2388C756.7829,-298.4464 803.7179,-305.9086 844,-319 859.4141,-324.0095 875.7273,-332.6919 887.1997,-339.4313"/>
<polygon fill="#9a32cd" stroke="#9a32cd" points="719.3637,-290.7211 709.0479,-293.1363 718.6183,-297.6813 719.3637,-290.7211"/>
</a>
</g>
<text text-anchor="middle" x="794" y="-322" font-family="Helvetica,sans-Serif" font-size="10.00" fill="#c0c0c0"> rawTokenStream</text>
</g>
<!-- Node75 -->
<g id="Node000075" class="node">
<title>Node75</title>
<g id="a_Node000075"><a xlink:href="classSgGlobal.html" target="_top" xlink:title="This class represents the concept of a namespace definition.">
<polygon fill="#fff0f0" stroke="#ff0000" points="679.5,-261.5 623.5,-261.5 623.5,-242.5 679.5,-242.5 679.5,-261.5"/>
<text text-anchor="middle" x="651.5" y="-249.5" font-family="Helvetica,sans-Serif" font-size="10.00" fill="#000000">SgGlobal</text>
</a>
</g>
</g>
<!-- Node75&#45;&gt;Node69 -->
<g id="edge10_Node000069_Node000075" class="edge">
<title>Node75&#45;&gt;Node69</title>
<g id="a_edge10_Node000069_Node000075"><a xlink:title=" ">
<path fill="none" stroke="#9a32cd" stroke-dasharray="5,2" d="M689.8114,-247.1123C730.7078,-243.7804 796.0841,-244.019 844,-271 872.0241,-286.7801 890.6742,-322.1023 898.428,-339.2665"/>
<polygon fill="#9a32cd" stroke="#9a32cd" points="689.3498,-243.64 679.7156,-248.0483 689.996,-250.6101 689.3498,-243.64"/>
</a>
</g>
<text text-anchor="middle" x="794" y="-285" font-family="Helvetica,sans-Serif" font-size="10.00" fill="#c0c0c0"> p_globalScope</text>
<text text-anchor="middle" x="794" y="-274" font-family="Helvetica,sans-Serif" font-size="10.00" fill="#c0c0c0">p_temp_holding_scope</text>
</g>
<!-- Node77&#45;&gt;Node69 -->
<g id="edge11_Node000069_Node000077" class="edge">
<title>Node77&#45;&gt;Node69</title>
<g id="a_edge11_Node000069_Node000077"><a xlink:title=" ">
<path fill="none" stroke="#9a32cd" stroke-dasharray="5,2" d="M569.2409,-414.1476C645.4151,-410.6449 752.9819,-401.1527 844,-376 858.6631,-371.9479 874.2569,-364.581 885.6542,-358.565"/>
<polygon fill="#9a32cd" stroke="#9a32cd" points="569.0139,-410.654 559.1749,-414.584 569.3172,-417.6475 569.0139,-410.654"/>
</a>
</g>
<text text-anchor="middle" x="651.5" y="-416" font-family="Helvetica,sans-Serif" font-size="10.00" fill="#c0c0c0"> p_module_list</text>
</g>
<!-- Node86&#45;&gt;Node69 -->
<g id="edge13_Node000069_Node000086" class="edge">
<title>Node86&#45;&gt;Node69</title>
<g id="a_edge13_Node000069_Node000086"><a xlink:title=" ">
<path fill="none" stroke="#9a32cd" stroke-dasharray="5,2" d="M543.991,-256.2617C549.2643,-254.3234 554.3351,-251.9345 559,-249 570.8965,-241.5164 564.5508,-229.5228 577,-223 629.6891,-195.3934 795.4175,-207.6778 844,-242 878.5832,-266.4321 894.8357,-317.9967 900.2913,-339.387"/>
<polygon fill="#9a32cd" stroke="#9a32cd" points="542.8239,-252.9594 534.3243,-259.2845 544.9131,-259.6404 542.8239,-252.9594"/>
</a>
</g>
<text text-anchor="middle" x="651.5" y="-226" font-family="Helvetica,sans-Serif" font-size="10.00" fill="#c0c0c0"> p_token_list</text>
</g>
<!-- Node89 -->
<g id="Node000089" class="node">
<title>Node89</title>
<g id="a_Node000089"><a xlink:href="classSgJavaPackageStatement.html" target="_top" xlink:title=" ">
<polygon fill="#ffffff" stroke="#ff4500" points="718,-176.5 585,-176.5 585,-157.5 718,-157.5 718,-176.5"/>
<text text-anchor="middle" x="651.5" y="-164.5" font-family="Helvetica,sans-Serif" font-size="10.00" fill="#000000">SgJavaPackageStatement</text>
</a>
</g>
</g>
<!-- Node89&#45;&gt;Node69 -->
<g id="edge15_Node000069_Node000089" class="edge">
<title>Node89&#45;&gt;Node69</title>
<g id="a_edge15_Node000069_Node000089"><a xlink:title=" ">
<path fill="none" stroke="#9a32cd" stroke-dasharray="5,2" d="M728.3434,-157.4167C766.7791,-156.7564 811.8345,-162.7532 844,-188 869.1483,-207.739 893.3176,-307.882 900.4142,-339.4527"/>
<polygon fill="#9a32cd" stroke="#9a32cd" points="728.0935,-153.9228 718.2118,-157.7442 728.3197,-160.9192 728.0935,-153.9228"/>
</a>
</g>
<text text-anchor="middle" x="794" y="-191" font-family="Helvetica,sans-Serif" font-size="10.00" fill="#c0c0c0"> p_package</text>
</g>
<!-- Node90&#45;&gt;Node69 -->
<g id="edge16_Node000069_Node000090" class="edge">
<title>Node90&#45;&gt;Node69</title>
<g id="a_edge16_Node000069_Node000090"><a xlink:title=" ">
<path fill="none" stroke="#9a32cd" stroke-dasharray="5,2" d="M716.4888,-481.7649C719.7794,-480.3358 722.9717,-478.753 726,-477 736.0671,-471.1724 733.901,-463.7722 744,-458 783.5939,-435.3698 806.3546,-460.7416 844,-435 872.6192,-415.4304 891.2159,-376.8402 898.7255,-358.7682"/>
<polygon fill="#9a32cd" stroke="#9a32cd" points="715.0939,-478.5512 707.0094,-485.3989 717.5997,-485.0874 715.0939,-478.5512"/>
</a>
</g>
<text text-anchor="middle" x="794" y="-461" font-family="Helvetica,sans-Serif" font-size="10.00" fill="#c0c0c0"> p_import_list</text>
</g>
<!-- Node93&#45;&gt;Node69 -->
<g id="edge18_Node000069_Node000093" class="edge">
<title>Node93&#45;&gt;Node69</title>
<g id="a_edge18_Node000069_Node000093"><a xlink:title=" ">
<path fill="none" stroke="#9a32cd" stroke-dasharray="5,2" d="M695.3421,-445.4523C705.5473,-442.1003 716.2699,-438.2218 726,-434 734.3955,-430.3573 735.4564,-427.2802 744,-424 786.5747,-407.6539 803.4722,-421.9118 844,-401 864.7704,-390.2827 884.0384,-370.4932 894.4468,-358.6601"/>
<polygon fill="#9a32cd" stroke="#9a32cd" points="694.2339,-442.132 685.7655,-448.4989 696.356,-448.8025 694.2339,-442.132"/>
</a>
</g>
<text text-anchor="middle" x="794" y="-427" font-family="Helvetica,sans-Serif" font-size="10.00" fill="#c0c0c0"> p_class_list</text>
</g>
<!-- Node95&#45;&gt;Node69 -->
<g id="edge22_Node000069_Node000095" class="edge">
<title>Node95&#45;&gt;Node69</title>
<g id="a_edge22_Node000069_Node000095"><a xlink:title=" ">
<path fill="none" stroke="#9a32cd" stroke-dasharray="5,2" d="M1140.0815,-474.752C1086.2049,-446.2351 966.3734,-382.8082 920.6802,-358.6228"/>
<polygon fill="#9a32cd" stroke="#9a32cd" points="1138.5667,-477.9103 1149.0424,-479.495 1141.8414,-471.7235 1138.5667,-477.9103"/>
</a>
</g>
<text text-anchor="middle" x="1018.5" y="-442" font-family="Helvetica,sans-Serif" font-size="10.00" fill="#c0c0c0"> p_associated_include_file</text>
</g>
<!-- Node95&#45;&gt;Node95 -->
<g id="edge25_Node000095_Node000095" class="edge">
<title>Node95&#45;&gt;Node95</title>
<g id="a_edge25_Node000095_Node000095"><a xlink:title=" ">
<path fill="none" stroke="#9a32cd" stroke-dasharray="5,2" d="M1139.4704,-507.6894C1140.972,-512.6971 1150.1486,-516.5 1167,-516.5 1193.3047,-516.5 1200.9084,-507.2337 1189.8111,-498.5828"/>
<polygon fill="#9a32cd" stroke="#9a32cd" points="1142.6959,-509.0719 1144.1889,-498.5828 1136.4807,-505.8515 1142.6959,-509.0719"/>
</a>
</g>
<text text-anchor="middle" x="1167" y="-519.5" font-family="Helvetica,sans-Serif" font-size="10.00" fill="#c0c0c0"> p_parent_include_file</text>
</g>
<!-- Node8 -->
<g id="Node000008" class="node">
<title>Node8</title>
<g id="a_Node000008"><a xlink:href="classSgStatement.html" target="_top" xlink:title="This class represents the notion of a statement.">
<polygon fill="#fff0f0" stroke="#ff0000" points="688.5,-58.5 614.5,-58.5 614.5,-39.5 688.5,-39.5 688.5,-58.5"/>
<text text-anchor="middle" x="651.5" y="-46.5" font-family="Helvetica,sans-Serif" font-size="10.00" fill="#000000">SgStatement</text>
</a>
</g>
</g>
<!-- Node8&#45;&gt;Node69 -->
<g id="edge30_Node000069_Node000008" class="edge">
<title>Node8&#45;&gt;Node69</title>
<g id="a_edge30_Node000069_Node000008"><a xlink:title=" ">
<path fill="none" stroke="#9a32cd" stroke-dasharray="5,2" d="M698.5654,-56.473C753.8457,-65.4463 838.752,-79.9233 844,-85 881.7905,-121.5566 898.2367,-296.2641 901.7578,-339.3698"/>
<polygon fill="#9a32cd" stroke="#9a32cd" points="699.0443,-53.0051 688.614,-54.865 697.9276,-59.9154 699.0443,-53.0051"/>
</a>
</g>
<text text-anchor="middle" x="794" y="-99" font-family="Helvetica,sans-Serif" font-size="10.00" fill="#c0c0c0"> p_firstStatement</text>
<text text-anchor="middle" x="794" y="-88" font-family="Helvetica,sans-Serif" font-size="10.00" fill="#c0c0c0">p_lastStatement</text>
</g>
<!-- Node8&#45;&gt;Node95 -->
<g id="edge26_Node000095_Node000008" class="edge">
<title>Node8&#45;&gt;Node95</title>
<g id="a_edge26_Node000095_Node000008"><a xlink:title=" ">
<path fill="none" stroke="#9a32cd" stroke-dasharray="5,2" d="M698.7766,-42.6535C739.7315,-39.4525 799.2674,-40.4835 844,-65 1029.8308,-166.8478 1141.6588,-425.7625 1163.1804,-479.2443"/>
<polygon fill="#9a32cd" stroke="#9a32cd" points="698.4336,-39.1701 688.785,-43.5467 699.0569,-46.1423 698.4336,-39.1701"/>
</a>
</g>
<text text-anchor="middle" x="902.5" y="-149" font-family="Helvetica,sans-Serif" font-size="10.00" fill="#c0c0c0"> p_firstStatement</text>
<text text-anchor="middle" x="902.5" y="-138" font-family="Helvetica,sans-Serif" font-size="10.00" fill="#c0c0c0">p_lastStatement</text>
</g>
<!-- Node97&#45;&gt;Node69 -->
<g id="edge27_Node000069_Node000097" class="edge">
<title>Node97&#45;&gt;Node69</title>
<g id="a_edge27_Node000069_Node000097"><a xlink:title=" ">
<path fill="none" stroke="#9a32cd" stroke-dasharray="5,2" d="M374.2867,-369.2482C502.5605,-364.331 766.8565,-354.1997 864.8549,-350.4431"/>
<polygon fill="#9a32cd" stroke="#9a32cd" points="374.0291,-365.7554 364.1705,-369.636 374.2973,-372.7502 374.0291,-365.7554"/>
</a>
</g>
<text text-anchor="middle" x="651.5" y="-364" font-family="Helvetica,sans-Serif" font-size="10.00" fill="#c0c0c0"> p_extra_nodes_for_namequal_init</text>
</g>
<!-- Node98&#45;&gt;Node1 -->
<g id="edge31_Node000001_Node000098" class="edge">
<title>Node98&#45;&gt;Node1</title>
<g id="a_edge31_Node000001_Node000098"><a xlink:title=" ">
<path fill="none" stroke="#9a32cd" stroke-dasharray="5,2" d="M1162.8442,-52.6281C1152.875,-96.9139 1124.7425,-206.9692 1076,-287 1036.6603,-351.5921 913.35,-505.8284 844,-536 793.5773,-557.937 728.4711,-550.0299 688.3719,-541.5751"/>
<polygon fill="#9a32cd" stroke="#9a32cd" points="1166.2664,-53.3619 1164.9889,-42.8444 1159.4287,-51.863 1166.2664,-53.3619"/>
</a>
</g>
<text text-anchor="middle" x="902.5" y="-528" font-family="Helvetica,sans-Serif" font-size="10.00" fill="#c0c0c0"> p_include_file_list</text>
</g>
</g>
</svg>

<g id="navigator" transform="translate(0 0)" fill="#404254">
  <rect fill="#f2f5e9" fill-opacity="0.5" stroke="#606060" stroke-width=".5" x="0" y="0" width="60" height="60"/>
  <use id="zoomplus" xlink:href="#zoomPlus" x="17" y="9" onmousedown="handleZoom(evt,'in')"/>
  <use id="zoomminus" xlink:href="#zoomMin" x="42" y="9" onmousedown="handleZoom(evt,'out')"/>
  <use id="reset" xlink:href="#resetDef" x="30" y="36" onmousedown="handleReset()"/>
   <use id="arrowup" xlink:href="#arrowUp" x="0" y="0" onmousedown="handlePan(0,-1)"/>
  <use id="arrowright" xlink:href="#arrowRight" x="0" y="0" onmousedown="handlePan(1,0)"/>
  <use id="arrowdown" xlink:href="#arrowDown" x="0" y="0" onmousedown="handlePan(0,1)"/>
  <use id="arrowleft" xlink:href="#arrowLeft" x="0" y="0" onmousedown="handlePan(-1,0)"/>
</g>
<svg viewBox="0 0 15 15" width="100%" height="30px" preserveAspectRatio="xMaxYMin meet">
 <g id="arrow_out" transform="scale(0.3 0.3)">
  <a xlink:href="classSgHeaderFileReport__coll__graph_org.svg" target="_base">
   <rect id="button" ry="5" rx="5" y="6" x="6" height="38" width="38"
        fill="#f2f5e9" fill-opacity="0.5" stroke="#606060" stroke-width="1.0"/>
   <path id="arrow"
     d="M 11.500037,31.436501 C 11.940474,20.09759 22.043105,11.32322 32.158766,21.979434 L 37.068811,17.246167 C 37.068811,17.246167 37.088388,32 37.088388,32 L 22.160133,31.978069 C 22.160133,31.978069 26.997745,27.140456 26.997745,27.140456 C 18.528582,18.264221 13.291696,25.230495 11.500037,31.436501 z"
     style="fill:#404040;"/>
  </a>
 </g>
</svg>

<style type='text/css'>
<![CDATA[
[data-mouse-over-selected='false'] { opacity: 0.7; }
[data-mouse-over-selected='true']  { opacity: 1.0; }
]]>
</style>
<script type="application/ecmascript"><![CDATA[
document.addEventListener('DOMContentLoaded', (event) => {
  highlightEdges();
  highlightAdjacentNodes();
});
]]></script>
</svg>
