<?xml version="1.0" encoding="UTF-8" standalone="no"?>
<!DOCTYPE svg PUBLIC "-//W3C//DTD SVG 1.1//EN"
 "http://www.w3.org/Graphics/SVG/1.1/DTD/svg11.dtd">
<!-- Generated by graphviz version 2.40.1 (0)
 -->
<!-- Title: SgDefaultSymbol Pages: 1 -->
<svg width="302pt" height="162pt"
 viewBox="0.00 0.00 302.00 162.00" xmlns="http://www.w3.org/2000/svg" xmlns:xlink="http://www.w3.org/1999/xlink">
<g id="graph0" class="graph" transform="scale(1 1) rotate(0) translate(4 158)">
<title>SgDefaultSymbol</title>
<!-- Node1 -->
<g id="Node000001" class="node">
<title>Node1</title>
<g id="a_Node000001"><a xlink:title=" ">
<polygon fill="#999999" stroke="#666666" points="137.5,-19 44.5,-19 44.5,0 137.5,0 137.5,-19"/>
<text text-anchor="middle" x="91" y="-7" font-family="Helvetica,sans-Serif" font-size="10.00" fill="#000000">SgDefaultSymbol</text>
</a>
</g>
</g>
<!-- Node2 -->
<g id="Node000002" class="node">
<title>Node2</title>
<g id="a_Node000002"><a xlink:href="classSgSymbol.html" target="_top" xlink:title="This class represents the concept of a name within the compiler.">
<polygon fill="#ffffff" stroke="#666666" points="86,-85 24,-85 24,-66 86,-66 86,-85"/>
<text text-anchor="middle" x="55" y="-73" font-family="Helvetica,sans-Serif" font-size="10.00" fill="#000000">SgSymbol</text>
</a>
</g>
</g>
<!-- Node2&#45;&gt;Node1 -->
<g id="edge1_Node000001_Node000002" class="edge">
<title>Node2&#45;&gt;Node1</title>
<g id="a_edge1_Node000001_Node000002"><a xlink:title=" ">
<path fill="none" stroke="#63b8ff" d="M65.1841,-56.8291C71.8487,-44.6107 80.2873,-29.1399 85.6663,-19.2785"/>
<polygon fill="#63b8ff" stroke="#63b8ff" points="62.0279,-55.3065 60.3119,-65.7615 68.1731,-58.6585 62.0279,-55.3065"/>
</a>
</g>
</g>
<!-- Node3 -->
<g id="Node000003" class="node">
<title>Node3</title>
<g id="a_Node000003"><a xlink:href="classSgNode.html" target="_top" xlink:title="This class represents the base class for all IR nodes within Sage III.">
<polygon fill="#fff0f0" stroke="#ff0000" points="52,-152.5 0,-152.5 0,-133.5 52,-133.5 52,-152.5"/>
<text text-anchor="middle" x="26" y="-140.5" font-family="Helvetica,sans-Serif" font-size="10.00" fill="#000000">SgNode</text>
</a>
</g>
</g>
<!-- Node3&#45;&gt;Node2 -->
<g id="edge2_Node000002_Node000003" class="edge">
<title>Node3&#45;&gt;Node2</title>
<g id="a_edge2_Node000002_Node000003"><a xlink:title=" ">
<path fill="none" stroke="#63b8ff" d="M32.0407,-123.7165C34.3109,-117.0619 37.0599,-109.619 40,-103 42.6933,-96.9365 46.2263,-90.4067 49.1869,-85.2321"/>
<polygon fill="#63b8ff" stroke="#63b8ff" points="28.6906,-122.7006 28.9088,-133.2932 35.3439,-124.8765 28.6906,-122.7006"/>
</a>
</g>
</g>
<!-- Node3&#45;&gt;Node3 -->
<g id="edge3_Node000003_Node000003" class="edge">
<title>Node3&#45;&gt;Node3</title>
<g id="a_edge3_Node000003_Node000003"><a xlink:title=" ">
<path fill="none" stroke="#9a32cd" stroke-dasharray="5,2" d="M62.4746,-148.5393C67.0156,-147.5577 70,-145.7112 70,-143 70,-138.5508 61.9631,-136.4305 52.1994,-136.639"/>
<polygon fill="#9a32cd" stroke="#9a32cd" points="61.8886,-145.0749 52.1994,-149.361 62.4466,-152.0526 61.8886,-145.0749"/>
</a>
</g>
<text text-anchor="middle" x="100" y="-146" font-family="Helvetica,sans-Serif" font-size="10.00" fill="#c0c0c0"> p_freepointer</text>
<text text-anchor="middle" x="100" y="-135" font-family="Helvetica,sans-Serif" font-size="10.00" fill="#c0c0c0">p_parent</text>
</g>
<!-- Node40 -->
<g id="Node000040" class="node">
<title>Node40</title>
<g id="a_Node000040"><a xlink:href="classSgType.html" target="_top" xlink:title="This class represents the base class for all types.">
<polygon fill="#fff0f0" stroke="#ff0000" points="154,-85 104,-85 104,-66 154,-66 154,-85"/>
<text text-anchor="middle" x="129" y="-73" font-family="Helvetica,sans-Serif" font-size="10.00" fill="#000000">SgType</text>
</a>
</g>
</g>
<!-- Node3&#45;&gt;Node40 -->
<g id="edge6_Node000040_Node000003" class="edge">
<title>Node3&#45;&gt;Node40</title>
<g id="a_edge6_Node000040_Node000003"><a xlink:title=" ">
<path fill="none" stroke="#63b8ff" d="M40.1727,-125.6238C47.0698,-117.9629 55.8416,-109.2918 65,-103 76.8617,-94.851 91.5248,-88.3359 103.8219,-83.6964"/>
<polygon fill="#63b8ff" stroke="#63b8ff" points="37.3673,-123.5179 33.4949,-133.3797 42.672,-128.0853 37.3673,-123.5179"/>
</a>
</g>
</g>
<!-- Node20 -->
<g id="Node000020" class="node">
<title>Node20</title>
<g id="a_Node000020"><a xlink:href="classAstAttributeMechanism.html" target="_top" xlink:title="Stores named attributes in Sage IR nodes.">
<polygon fill="#ffffff" stroke="#666666" points="267.5,-152.5 148.5,-152.5 148.5,-133.5 267.5,-133.5 267.5,-152.5"/>
<text text-anchor="middle" x="208" y="-140.5" font-family="Helvetica,sans-Serif" font-size="10.00" fill="#000000">AstAttributeMechanism</text>
</a>
</g>
</g>
<!-- Node20&#45;&gt;Node2 -->
<g id="edge4_Node000002_Node000020" class="edge">
<title>Node20&#45;&gt;Node2</title>
<g id="a_edge4_Node000002_Node000020"><a xlink:title=" ">
<path fill="none" stroke="#9a32cd" stroke-dasharray="5,2" d="M138.4123,-131.7636C114.3213,-126.9004 90.8799,-120.7688 81,-114 70.6202,-106.8888 63.236,-94.1478 59.0509,-85.2791"/>
<polygon fill="#9a32cd" stroke="#9a32cd" points="137.889,-135.2273 148.3731,-133.6998 139.2247,-128.3559 137.889,-135.2273"/>
</a>
</g>
<text text-anchor="middle" x="131" y="-106" font-family="Helvetica,sans-Serif" font-size="10.00" fill="#c0c0c0"> p_attributeMechanism</text>
</g>
<!-- Node20&#45;&gt;Node40 -->
<g id="edge7_Node000040_Node000020" class="edge">
<title>Node20&#45;&gt;Node40</title>
<g id="a_edge7_Node000040_Node000020"><a xlink:title=" ">
<path fill="none" stroke="#9a32cd" stroke-dasharray="5,2" d="M200.0791,-124.1282C196.3236,-116.846 191.2703,-108.8733 185,-103 176.2255,-94.781 164.5319,-88.5193 154.1003,-84.0628"/>
<polygon fill="#9a32cd" stroke="#9a32cd" points="196.9897,-125.7848 204.3882,-133.3685 203.3338,-122.8262 196.9897,-125.7848"/>
</a>
</g>
<text text-anchor="middle" x="244" y="-106" font-family="Helvetica,sans-Serif" font-size="10.00" fill="#c0c0c0"> p_attributeMechanism</text>
</g>
<!-- Node40&#45;&gt;Node1 -->
<g id="edge5_Node000001_Node000040" class="edge">
<title>Node40&#45;&gt;Node1</title>
<g id="a_edge5_Node000001_Node000040"><a xlink:title=" ">
<path fill="none" stroke="#9a32cd" stroke-dasharray="5,2" d="M118.2501,-56.8291C111.2152,-44.6107 102.3078,-29.1399 96.63,-19.2785"/>
<polygon fill="#9a32cd" stroke="#9a32cd" points="115.3701,-58.8416 123.393,-65.7615 121.4365,-55.3488 115.3701,-58.8416"/>
</a>
</g>
<text text-anchor="middle" x="129.5" y="-40" font-family="Helvetica,sans-Serif" font-size="10.00" fill="#c0c0c0"> p_type</text>
</g>
</g>
</svg>
