<?xml version="1.0" encoding="UTF-8" standalone="no"?>
<!DOCTYPE svg PUBLIC "-//W3C//DTD SVG 1.1//EN"
 "http://www.w3.org/Graphics/SVG/1.1/DTD/svg11.dtd">
<!-- Generated by graphviz version 2.40.1 (0)
 -->
<!-- Title: SgFunctionDeclaration::variantT Pages: 1 -->
<svg width="540pt" height="124pt"
 viewBox="0.00 0.00 540.00 123.50" xmlns="http://www.w3.org/2000/svg" xmlns:xlink="http://www.w3.org/1999/xlink">
<g id="graph0" class="graph" transform="scale(1 1) rotate(0) translate(4 119.5)">
<title>SgFunctionDeclaration::variantT</title>
<!-- Node1 -->
<g id="Node000001" class="node">
<title>Node1</title>
<g id="a_Node000001"><a xlink:title="returns new style SageIII enum values">
<polygon fill="#999999" stroke="#666666" points="532,-67.5 416,-67.5 416,-37.5 532,-37.5 532,-67.5"/>
<text text-anchor="start" x="424" y="-55.5" font-family="Helvetica,sans-Serif" font-size="10.00" fill="#000000">SgFunctionDeclaration</text>
<text text-anchor="middle" x="474" y="-44.5" font-family="Helvetica,sans-Serif" font-size="10.00" fill="#000000">::variantT</text>
</a>
</g>
</g>
<!-- Node2 -->
<g id="Node000002" class="node">
<title>Node2</title>
<g id="a_Node000002"><a xlink:href="namespaceSageInterface.html#abd5184ade09a0f2c3d80dfef5c7543f7" target="_top" xlink:title="Function to delete AST subtree&#39;s nodes only, users must take care of any dangling pointers,...">
<polygon fill="#ffffff" stroke="#666666" points="380,-115.5 239,-115.5 239,-85.5 380,-85.5 380,-115.5"/>
<text text-anchor="start" x="247" y="-103.5" font-family="Helvetica,sans-Serif" font-size="10.00" fill="#000000">SageInterface::buildFunction</text>
<text text-anchor="middle" x="309.5" y="-92.5" font-family="Helvetica,sans-Serif" font-size="10.00" fill="#000000">Prototype</text>
</a>
</g>
</g>
<!-- Node1&#45;&gt;Node2 -->
<g id="edge1_Node000001_Node000002" class="edge">
<title>Node1&#45;&gt;Node2</title>
<g id="a_edge1_Node000001_Node000002"><a xlink:title=" ">
<path fill="none" stroke="#63b8ff" d="M412.5616,-70.4273C395.5576,-75.389 377.2834,-80.7213 360.9144,-85.4976"/>
<polygon fill="#63b8ff" stroke="#63b8ff" points="413.7833,-73.7169 422.4025,-67.5558 411.8224,-66.9971 413.7833,-73.7169"/>
</a>
</g>
</g>
<!-- Node5 -->
<g id="Node000005" class="node">
<title>Node5</title>
<g id="a_Node000005"><a xlink:href="namespaceSageInterface.html#a13991a809ed7d05e1abd5dfe3f28dc08" target="_top" xlink:title="Fix the symbol table and set scope (only if scope in declaration is not already set).">
<polygon fill="#ffffff" stroke="#666666" points="375,-67.5 244,-67.5 244,-37.5 375,-37.5 375,-67.5"/>
<text text-anchor="start" x="252" y="-55.5" font-family="Helvetica,sans-Serif" font-size="10.00" fill="#000000">SageInterface::fixFunction</text>
<text text-anchor="middle" x="309.5" y="-44.5" font-family="Helvetica,sans-Serif" font-size="10.00" fill="#000000">Declaration</text>
</a>
</g>
</g>
<!-- Node1&#45;&gt;Node5 -->
<g id="edge3_Node000001_Node000005" class="edge">
<title>Node1&#45;&gt;Node5</title>
<g id="a_edge3_Node000001_Node000005"><a xlink:title=" ">
<path fill="none" stroke="#63b8ff" d="M405.2476,-52.5C395.2511,-52.5 384.9811,-52.5 375.0502,-52.5"/>
<polygon fill="#63b8ff" stroke="#63b8ff" points="405.5403,-56.0001 415.5403,-52.5 405.5402,-49.0001 405.5403,-56.0001"/>
</a>
</g>
</g>
<!-- Node59 -->
<g id="Node000059" class="node">
<title>Node59</title>
<g id="a_Node000059"><a xlink:href="namespaceSageInterface.html#a1a75ef1b6fc0708f3a2791d5198bdf19" target="_top" xlink:title="Return true if function is overloaded.">
<polygon fill="#ffffff" stroke="#666666" points="379.5,-19 239.5,-19 239.5,0 379.5,0 379.5,-19"/>
<text text-anchor="middle" x="309.5" y="-7" font-family="Helvetica,sans-Serif" font-size="10.00" fill="#000000">SageInterface::isOverloaded</text>
</a>
</g>
</g>
<!-- Node1&#45;&gt;Node59 -->
<g id="edge5_Node000001_Node000059" class="edge">
<title>Node1&#45;&gt;Node59</title>
<g id="a_edge5_Node000001_Node000059"><a xlink:title=" ">
<path fill="none" stroke="#63b8ff" d="M406.7472,-34.9202C386.0377,-29.5068 364.0153,-23.7502 346.1739,-19.0865"/>
<polygon fill="#63b8ff" stroke="#63b8ff" points="405.9058,-38.3178 416.4659,-37.4607 407.6761,-31.5454 405.9058,-38.3178"/>
</a>
</g>
</g>
<!-- Node3 -->
<g id="Node000003" class="node">
<title>Node3</title>
<g id="a_Node000003"><a xlink:href="namespaceSageInterface.html#a106801ca96f9fbd27fc3a724d8f42b79" target="_top" xlink:title="Function to delete AST subtree&#39;s nodes only, users must take care of any dangling pointers,...">
<polygon fill="#fff0f0" stroke="#ff0000" points="203,-115.5 0,-115.5 0,-85.5 203,-85.5 203,-115.5"/>
<text text-anchor="start" x="8" y="-103.5" font-family="Helvetica,sans-Serif" font-size="10.00" fill="#000000">SageInterface::replaceDefining</text>
<text text-anchor="middle" x="101.5" y="-92.5" font-family="Helvetica,sans-Serif" font-size="10.00" fill="#000000">FunctionDeclarationWithFunctionPrototype</text>
</a>
</g>
</g>
<!-- Node2&#45;&gt;Node3 -->
<g id="edge2_Node000002_Node000003" class="edge">
<title>Node2&#45;&gt;Node3</title>
<g id="a_edge2_Node000002_Node000003"><a xlink:title=" ">
<path fill="none" stroke="#63b8ff" d="M228.749,-100.5C220.4189,-100.5 211.879,-100.5 203.3584,-100.5"/>
<polygon fill="#63b8ff" stroke="#63b8ff" points="228.7905,-104.0001 238.7905,-100.5 228.7904,-97.0001 228.7905,-104.0001"/>
</a>
</g>
</g>
<!-- Node6 -->
<g id="Node000006" class="node">
<title>Node6</title>
<g id="a_Node000006"><a xlink:href="namespaceSageInterface.html#a2410a8e2fc7310bd63c24d10b91594a3" target="_top" xlink:title="A wrapper containing fixes (fixVariableDeclaration(),fixStructDeclaration(), fixLabelStatement(),...">
<polygon fill="#fff0f0" stroke="#ff0000" points="171,-62 32,-62 32,-43 171,-43 171,-62"/>
<text text-anchor="middle" x="101.5" y="-50" font-family="Helvetica,sans-Serif" font-size="10.00" fill="#000000">SageInterface::fixStatement</text>
</a>
</g>
</g>
<!-- Node5&#45;&gt;Node6 -->
<g id="edge4_Node000005_Node000006" class="edge">
<title>Node5&#45;&gt;Node6</title>
<g id="a_edge4_Node000005_Node000006"><a xlink:title=" ">
<path fill="none" stroke="#63b8ff" d="M233.735,-52.5C213.2347,-52.5 191.1508,-52.5 171.0123,-52.5"/>
<polygon fill="#63b8ff" stroke="#63b8ff" points="233.973,-56.0001 243.973,-52.5 233.973,-49.0001 233.973,-56.0001"/>
</a>
</g>
</g>
</g>
</svg>
