<?xml version="1.0" encoding="UTF-8" standalone="no"?>
<!DOCTYPE svg PUBLIC "-//W3C//DTD SVG 1.1//EN"
 "http://www.w3.org/Graphics/SVG/1.1/DTD/svg11.dtd">
<!-- Generated by graphviz version 2.40.1 (0)
 -->
<!-- Title: SgEntryStatement Pages: 1 -->
<svg width="1037pt" height="641pt"
 viewBox="0.00 0.00 1037.00 641.19" xmlns="http://www.w3.org/2000/svg" xmlns:xlink="http://www.w3.org/1999/xlink">
<g id="graph0" class="graph" transform="scale(1 1) rotate(0) translate(4 637.1902)">
<title>SgEntryStatement</title>
<!-- Node1 -->
<g id="Node000001" class="node">
<title>Node1</title>
<g id="a_Node000001"><a xlink:title=" ">
<polygon fill="#999999" stroke="#666666" points="1029,-409.6902 932,-409.6902 932,-390.6902 1029,-390.6902 1029,-409.6902"/>
<text text-anchor="middle" x="980.5" y="-397.6902" font-family="Helvetica,sans-Serif" font-size="10.00" fill="#000000">SgEntryStatement</text>
</a>
</g>
</g>
<!-- Node2 -->
<g id="Node000002" class="node">
<title>Node2</title>
<g id="a_Node000002"><a xlink:href="classSgFunctionDeclaration.html" target="_top" xlink:title="This class represents the concept of a function declaration statement.">
<polygon fill="#ffffff" stroke="#666666" points="895,-311.6902 779,-311.6902 779,-292.6902 895,-292.6902 895,-311.6902"/>
<text text-anchor="middle" x="837" y="-299.6902" font-family="Helvetica,sans-Serif" font-size="10.00" fill="#000000">SgFunctionDeclaration</text>
</a>
</g>
</g>
<!-- Node2&#45;&gt;Node1 -->
<g id="edge1_Node000001_Node000002" class="edge">
<title>Node2&#45;&gt;Node1</title>
<g id="a_edge1_Node000001_Node000002"><a xlink:title=" ">
<path fill="none" stroke="#63b8ff" d="M859.5297,-317.5763C889.3934,-337.971 941.2176,-373.3632 966.2098,-390.4311"/>
<polygon fill="#63b8ff" stroke="#63b8ff" points="861.2526,-314.5146 851.0207,-311.7653 857.3048,-320.2952 861.2526,-314.5146"/>
</a>
</g>
</g>
<!-- Node3 -->
<g id="Node000003" class="node">
<title>Node3</title>
<g id="a_Node000003"><a xlink:href="classSgDeclarationStatement.html" target="_top" xlink:title="This class represents the concept of a declaration statement.">
<polygon fill="#fff0f0" stroke="#ff0000" points="346,-331.6902 223,-331.6902 223,-312.6902 346,-312.6902 346,-331.6902"/>
<text text-anchor="middle" x="284.5" y="-319.6902" font-family="Helvetica,sans-Serif" font-size="10.00" fill="#000000">SgDeclarationStatement</text>
</a>
</g>
</g>
<!-- Node3&#45;&gt;Node2 -->
<g id="edge2_Node000002_Node000003" class="edge">
<title>Node3&#45;&gt;Node2</title>
<g id="a_edge2_Node000002_Node000003"><a xlink:title=" ">
<path fill="none" stroke="#63b8ff" d="M356.0667,-319.5995C466.6912,-315.595 677.0615,-307.9798 778.8937,-304.2936"/>
<polygon fill="#63b8ff" stroke="#63b8ff" points="355.8709,-316.1042 346.0041,-319.9638 356.1242,-323.0997 355.8709,-316.1042"/>
</a>
</g>
</g>
<!-- Node3&#45;&gt;Node3 -->
<g id="edge4_Node000003_Node000003" class="edge">
<title>Node3&#45;&gt;Node3</title>
<g id="a_edge4_Node000003_Node000003"><a xlink:title=" ">
<path fill="none" stroke="#9a32cd" stroke-dasharray="5,2" d="M260.3186,-340.8796C261.6376,-345.8873 269.6981,-349.6902 284.5,-349.6902 307.6055,-349.6902 314.2844,-340.4239 304.5368,-331.773"/>
<polygon fill="#9a32cd" stroke="#9a32cd" points="263.5063,-342.3246 264.4632,-331.773 257.1351,-339.4248 263.5063,-342.3246"/>
</a>
</g>
<text text-anchor="middle" x="284.5" y="-363.6902" font-family="Helvetica,sans-Serif" font-size="10.00" fill="#c0c0c0"> p_definingDeclaration</text>
<text text-anchor="middle" x="284.5" y="-352.6902" font-family="Helvetica,sans-Serif" font-size="10.00" fill="#c0c0c0">p_firstNondefiningDeclaration</text>
</g>
<!-- Node70 -->
<g id="Node000070" class="node">
<title>Node70</title>
<g id="a_Node000070"><a xlink:href="classSgFunctionParameterList.html" target="_top" xlink:title="This class represents the concept of a declaration list.">
<polygon fill="#fff0f0" stroke="#ff0000" points="616,-349.6902 489,-349.6902 489,-330.6902 616,-330.6902 616,-349.6902"/>
<text text-anchor="middle" x="552.5" y="-337.6902" font-family="Helvetica,sans-Serif" font-size="10.00" fill="#000000">SgFunctionParameterList</text>
</a>
</g>
</g>
<!-- Node3&#45;&gt;Node70 -->
<g id="edge9_Node000070_Node000003" class="edge">
<title>Node3&#45;&gt;Node70</title>
<g id="a_edge9_Node000070_Node000003"><a xlink:title=" ">
<path fill="none" stroke="#63b8ff" d="M356.3009,-327.0126C397.5276,-329.7816 448.8488,-333.2285 488.6611,-335.9025"/>
<polygon fill="#63b8ff" stroke="#63b8ff" points="356.5332,-323.5204 346.3211,-326.3424 356.0641,-330.5047 356.5332,-323.5204"/>
</a>
</g>
</g>
<!-- Node43 -->
<g id="Node000043" class="node">
<title>Node43</title>
<g id="a_Node000043"><a xlink:href="classSgInitializedName.html" target="_top" xlink:title="This class represents the notion of a declared variable.">
<polygon fill="#fff0f0" stroke="#ff0000" points="600.5,-508.6902 504.5,-508.6902 504.5,-489.6902 600.5,-489.6902 600.5,-508.6902"/>
<text text-anchor="middle" x="552.5" y="-496.6902" font-family="Helvetica,sans-Serif" font-size="10.00" fill="#000000">SgInitializedName</text>
</a>
</g>
</g>
<!-- Node3&#45;&gt;Node43 -->
<g id="edge26_Node000043_Node000003" class="edge">
<title>Node3&#45;&gt;Node43</title>
<g id="a_edge26_Node000043_Node000003"><a xlink:title=" ">
<path fill="none" stroke="#9a32cd" stroke-dasharray="5,2" d="M336.286,-334.1283C383.338,-346.0246 447.9293,-365.3363 465,-385.1902 493.3017,-418.1061 453.3668,-449.4677 483,-481.1902 488.7857,-487.3838 496.4014,-491.5571 504.4668,-494.3463"/>
<polygon fill="#9a32cd" stroke="#9a32cd" points="337.0843,-330.7202 326.5353,-331.7047 335.3958,-337.5136 337.0843,-330.7202"/>
</a>
</g>
<text text-anchor="middle" x="414.5" y="-388.1902" font-family="Helvetica,sans-Serif" font-size="10.00" fill="#c0c0c0"> p_declptr</text>
</g>
<!-- Node14 -->
<g id="Node000014" class="node">
<title>Node14</title>
<g id="a_Node000014"><a xlink:title=" ">
<polygon fill="#fff0f0" stroke="#ff0000" points="71,-408.6902 11,-408.6902 11,-389.6902 71,-389.6902 71,-408.6902"/>
<text text-anchor="middle" x="41" y="-396.6902" font-family="Helvetica,sans-Serif" font-size="10.00" fill="#000000">std::string</text>
</a>
</g>
</g>
<!-- Node14&#45;&gt;Node2 -->
<g id="edge14_Node000002_Node000014" class="edge">
<title>Node14&#45;&gt;Node2</title>
<g id="a_edge14_Node000002_Node000014"><a xlink:title=" ">
<path fill="none" stroke="#9a32cd" stroke-dasharray="5,2" d="M53.1718,-417.4997C79.1233,-454.66 144.0202,-538.0414 223,-569.1902 287.0833,-594.464 542.5786,-570.4049 622,-547.1902 689.1761,-527.5547 714.0701,-525.1109 761,-473.1902 775.1679,-457.5156 770.6097,-448.5815 779,-429.1902 798.1548,-384.9207 822.5771,-332.735 832.5031,-311.6907"/>
<polygon fill="#9a32cd" stroke="#9a32cd" points="55.9646,-415.3833 47.4282,-409.1079 50.188,-419.337 55.9646,-415.3833"/>
</a>
</g>
<text text-anchor="middle" x="414.5" y="-625.1902" font-family="Helvetica,sans-Serif" font-size="10.00" fill="#c0c0c0"> p_asm_name</text>
<text text-anchor="start" x="377.5" y="-614.1902" font-family="Helvetica,sans-Serif" font-size="10.00" fill="#c0c0c0">p_gnu_extension</text>
<text text-anchor="middle" x="414.5" y="-603.1902" font-family="Helvetica,sans-Serif" font-size="10.00" fill="#c0c0c0">_alias</text>
<text text-anchor="start" x="377.5" y="-592.1902" font-family="Helvetica,sans-Serif" font-size="10.00" fill="#c0c0c0">p_gnu_extension</text>
<text text-anchor="middle" x="414.5" y="-581.1902" font-family="Helvetica,sans-Serif" font-size="10.00" fill="#c0c0c0">_section</text>
</g>
<!-- Node14&#45;&gt;Node3 -->
<g id="edge3_Node000003_Node000014" class="edge">
<title>Node14&#45;&gt;Node3</title>
<g id="a_edge3_Node000003_Node000014"><a xlink:title=" ">
<path fill="none" stroke="#9a32cd" stroke-dasharray="5,2" d="M69.993,-385.4108C79.4433,-381.1909 90.0616,-376.7324 100,-373.1902 148.364,-355.9523 205.5518,-340.9453 243.2971,-331.755"/>
<polygon fill="#9a32cd" stroke="#9a32cd" points="68.2916,-382.3399 60.6451,-389.6735 71.196,-388.7089 68.2916,-382.3399"/>
</a>
</g>
<text text-anchor="middle" x="152.5" y="-387.1902" font-family="Helvetica,sans-Serif" font-size="10.00" fill="#c0c0c0"> p_binding_label</text>
<text text-anchor="middle" x="152.5" y="-376.1902" font-family="Helvetica,sans-Serif" font-size="10.00" fill="#c0c0c0">p_linkage</text>
</g>
<!-- Node13 -->
<g id="Node000013" class="node">
<title>Node13</title>
<g id="a_Node000013"><a xlink:href="classSgName.html" target="_top" xlink:title="This class represents strings within the IR nodes.">
<polygon fill="#fff0f0" stroke="#ff0000" points="312,-408.6902 257,-408.6902 257,-389.6902 312,-389.6902 312,-408.6902"/>
<text text-anchor="middle" x="284.5" y="-396.6902" font-family="Helvetica,sans-Serif" font-size="10.00" fill="#000000">SgName</text>
</a>
</g>
</g>
<!-- Node14&#45;&gt;Node13 -->
<g id="edge7_Node000013_Node000014" class="edge">
<title>Node14&#45;&gt;Node13</title>
<g id="a_edge7_Node000013_Node000014"><a xlink:title=" ">
<path fill="none" stroke="#9a32cd" stroke-dasharray="5,2" d="M81.4028,-399.1902C131.0128,-399.1902 213.8398,-399.1902 256.7842,-399.1902"/>
<polygon fill="#9a32cd" stroke="#9a32cd" points="81.3471,-395.6903 71.3471,-399.1902 81.3471,-402.6903 81.3471,-395.6903"/>
</a>
</g>
<text text-anchor="middle" x="152.5" y="-402.1902" font-family="Helvetica,sans-Serif" font-size="10.00" fill="#c0c0c0"> p_char</text>
</g>
<!-- Node72 -->
<g id="Node000072" class="node">
<title>Node72</title>
<g id="a_Node000072"><a xlink:href="classSgFunctionModifier.html" target="_top" xlink:title=" ">
<polygon fill="#ffffff" stroke="#ff4500" points="465,-240.6902 364,-240.6902 364,-221.6902 465,-221.6902 465,-240.6902"/>
<text text-anchor="middle" x="414.5" y="-228.6902" font-family="Helvetica,sans-Serif" font-size="10.00" fill="#000000">SgFunctionModifier</text>
</a>
</g>
</g>
<!-- Node14&#45;&gt;Node72 -->
<g id="edge11_Node000072_Node000014" class="edge">
<title>Node14&#45;&gt;Node72</title>
<g id="a_edge11_Node000072_Node000014"><a xlink:title=" ">
<path fill="none" stroke="#9a32cd" stroke-dasharray="5,2" d="M46.3487,-379.5649C54.0303,-355.2914 70.6053,-314.5669 100,-293.1902 178.877,-235.8283 297.1465,-227.9474 363.91,-228.683"/>
<polygon fill="#9a32cd" stroke="#9a32cd" points="42.9105,-378.8494 43.431,-389.4314 49.6232,-380.8345 42.9105,-378.8494"/>
</a>
</g>
<text text-anchor="start" x="100" y="-329.1902" font-family="Helvetica,sans-Serif" font-size="10.00" fill="#c0c0c0"> p_gnu_attribute_named</text>
<text text-anchor="middle" x="152.5" y="-318.1902" font-family="Helvetica,sans-Serif" font-size="10.00" fill="#c0c0c0">_alias</text>
<text text-anchor="start" x="100" y="-307.1902" font-family="Helvetica,sans-Serif" font-size="10.00" fill="#c0c0c0">p_gnu_attribute_named</text>
<text text-anchor="middle" x="152.5" y="-296.1902" font-family="Helvetica,sans-Serif" font-size="10.00" fill="#c0c0c0">_weak_reference</text>
</g>
<!-- Node14&#45;&gt;Node43 -->
<g id="edge24_Node000043_Node000014" class="edge">
<title>Node14&#45;&gt;Node43</title>
<g id="a_edge24_Node000043_Node000014"><a xlink:title=" ">
<path fill="none" stroke="#9a32cd" stroke-dasharray="5,2" d="M80.991,-409.748C87.3335,-411.3096 93.8336,-412.844 100,-414.1902 208.5898,-437.8972 236.7722,-438.6215 346,-459.1902 400.1884,-469.3944 462.296,-481.4775 504.1276,-489.6727"/>
<polygon fill="#9a32cd" stroke="#9a32cd" points="81.7758,-406.3365 71.2244,-407.295 80.0705,-413.1256 81.7758,-406.3365"/>
</a>
</g>
<text text-anchor="start" x="230" y="-561.1902" font-family="Helvetica,sans-Serif" font-size="10.00" fill="#c0c0c0"> p_gnu_attribute_cleanup</text>
<text text-anchor="middle" x="284.5" y="-550.1902" font-family="Helvetica,sans-Serif" font-size="10.00" fill="#c0c0c0">_function</text>
<text text-anchor="start" x="230" y="-539.1902" font-family="Helvetica,sans-Serif" font-size="10.00" fill="#c0c0c0">p_gnu_attribute_named</text>
<text text-anchor="middle" x="284.5" y="-528.1902" font-family="Helvetica,sans-Serif" font-size="10.00" fill="#c0c0c0">_alias</text>
<text text-anchor="start" x="230" y="-517.1902" font-family="Helvetica,sans-Serif" font-size="10.00" fill="#c0c0c0">p_gnu_attribute_named</text>
<text text-anchor="middle" x="284.5" y="-506.1902" font-family="Helvetica,sans-Serif" font-size="10.00" fill="#c0c0c0">_weak_reference</text>
<text text-anchor="start" x="230" y="-495.1902" font-family="Helvetica,sans-Serif" font-size="10.00" fill="#c0c0c0">p_gnu_attribute_section</text>
<text text-anchor="middle" x="284.5" y="-484.1902" font-family="Helvetica,sans-Serif" font-size="10.00" fill="#c0c0c0">_name</text>
<text text-anchor="middle" x="284.5" y="-473.1902" font-family="Helvetica,sans-Serif" font-size="10.00" fill="#c0c0c0">p_microsoft_uuid_string</text>
<text text-anchor="middle" x="284.5" y="-462.1902" font-family="Helvetica,sans-Serif" font-size="10.00" fill="#c0c0c0">p_register_name_string</text>
</g>
<!-- Node41 -->
<g id="Node000041" class="node">
<title>Node41</title>
<g id="a_Node000041"><a xlink:href="classSgExprListExp.html" target="_top" xlink:title="This class represents the concept of a C and C++ expression list.">
<polygon fill="#fff0f0" stroke="#ff0000" points="82,-108.6902 0,-108.6902 0,-89.6902 82,-89.6902 82,-108.6902"/>
<text text-anchor="middle" x="41" y="-96.6902" font-family="Helvetica,sans-Serif" font-size="10.00" fill="#000000">SgExprListExp</text>
</a>
</g>
</g>
<!-- Node41&#45;&gt;Node2 -->
<g id="edge15_Node000002_Node000041" class="edge">
<title>Node41&#45;&gt;Node2</title>
<g id="a_edge15_Node000002_Node000041"><a xlink:title=" ">
<path fill="none" stroke="#9a32cd" stroke-dasharray="5,2" d="M73.0788,-85.8691C182.2527,-42.8666 544.5905,80.418 761,-80.1902 797.2296,-107.078 827.6609,-253.6333 835.2051,-292.6462"/>
<polygon fill="#9a32cd" stroke="#9a32cd" points="71.5959,-82.6924 63.6064,-89.6507 74.1914,-89.1935 71.5959,-82.6924"/>
</a>
</g>
<text text-anchor="middle" x="414.5" y="-11.1902" font-family="Helvetica,sans-Serif" font-size="10.00" fill="#c0c0c0"> p_decoratorList</text>
</g>
<!-- Node41&#45;&gt;Node3 -->
<g id="edge5_Node000003_Node000041" class="edge">
<title>Node41&#45;&gt;Node3</title>
<g id="a_edge5_Node000003_Node000041"><a xlink:title=" ">
<path fill="none" stroke="#9a32cd" stroke-dasharray="5,2" d="M65.1247,-114.4349C98.4977,-136.1334 159.749,-178.1969 205,-222.1902 235.6915,-252.0286 265.2917,-293.7138 278.0019,-312.4236"/>
<polygon fill="#9a32cd" stroke="#9a32cd" points="66.7896,-111.344 56.4876,-108.8702 62.9983,-117.2285 66.7896,-111.344"/>
</a>
</g>
<text text-anchor="middle" x="152.5" y="-225.1902" font-family="Helvetica,sans-Serif" font-size="10.00" fill="#c0c0c0"> p_adaAspects</text>
</g>
<!-- Node13&#45;&gt;Node2 -->
<g id="edge6_Node000002_Node000013" class="edge">
<title>Node13&#45;&gt;Node2</title>
<g id="a_edge6_Node000002_Node000013"><a xlink:title=" ">
<path fill="none" stroke="#9a32cd" stroke-dasharray="5,2" d="M322.0665,-398.3214C419.9049,-395.6598 680.5619,-385.9063 761,-356.1902 787.722,-346.3183 813.6232,-324.4968 827.2018,-311.8225"/>
<polygon fill="#9a32cd" stroke="#9a32cd" points="321.9414,-394.8234 312.0367,-398.5847 322.1251,-401.821 321.9414,-394.8234"/>
</a>
</g>
<text text-anchor="middle" x="552.5" y="-394.1902" font-family="Helvetica,sans-Serif" font-size="10.00" fill="#c0c0c0"> p_name</text>
</g>
<!-- Node13&#45;&gt;Node43 -->
<g id="edge23_Node000043_Node000013" class="edge">
<title>Node13&#45;&gt;Node43</title>
<g id="a_edge23_Node000043_Node000013"><a xlink:title=" ">
<path fill="none" stroke="#9a32cd" stroke-dasharray="5,2" d="M322.2237,-398.8359C368.6973,-399.1872 444.0786,-402.5741 465,-420.1902 486.6226,-438.3967 462.6802,-461.5403 483,-481.1902 488.9135,-486.9088 496.3974,-490.8751 504.2488,-493.6126"/>
<polygon fill="#9a32cd" stroke="#9a32cd" points="322.2227,-395.336 312.2114,-398.8034 322.1999,-402.3359 322.2227,-395.336"/>
</a>
</g>
<text text-anchor="middle" x="414.5" y="-423.1902" font-family="Helvetica,sans-Serif" font-size="10.00" fill="#c0c0c0"> p_name</text>
</g>
<!-- Node70&#45;&gt;Node2 -->
<g id="edge8_Node000002_Node000070" class="edge">
<title>Node70&#45;&gt;Node2</title>
<g id="a_edge8_Node000002_Node000070"><a xlink:title=" ">
<path fill="none" stroke="#9a32cd" stroke-dasharray="5,2" d="M626.2558,-332.9279C666.2197,-328.6841 716.4122,-322.8554 761,-316.1902 769.7575,-314.8811 779.051,-313.3164 788.0219,-311.715"/>
<polygon fill="#9a32cd" stroke="#9a32cd" points="625.6415,-329.4731 616.0623,-333.9996 626.3735,-336.4347 625.6415,-329.4731"/>
</a>
</g>
<text text-anchor="middle" x="700.5" y="-344.1902" font-family="Helvetica,sans-Serif" font-size="10.00" fill="#c0c0c0"> p_parameterList</text>
<text text-anchor="middle" x="700.5" y="-333.1902" font-family="Helvetica,sans-Serif" font-size="10.00" fill="#c0c0c0">p_parameterList_syntax</text>
</g>
<!-- Node72&#45;&gt;Node2 -->
<g id="edge10_Node000002_Node000072" class="edge">
<title>Node72&#45;&gt;Node2</title>
<g id="a_edge10_Node000002_Node000072"><a xlink:title=" ">
<path fill="none" stroke="#9a32cd" stroke-dasharray="5,2" d="M475.2025,-224.5825C546.1078,-219.1652 665.825,-217.2542 761,-252.1902 786.5016,-261.5511 812.0431,-280.9041 826.059,-292.5966"/>
<polygon fill="#9a32cd" stroke="#9a32cd" points="474.7876,-221.1046 465.104,-225.4033 475.3547,-228.0816 474.7876,-221.1046"/>
</a>
</g>
<text text-anchor="middle" x="552.5" y="-226.1902" font-family="Helvetica,sans-Serif" font-size="10.00" fill="#c0c0c0"> p_functionModifier</text>
</g>
<!-- Node74 -->
<g id="Node000074" class="node">
<title>Node74</title>
<g id="a_Node000074"><a xlink:href="classSgSpecialFunctionModifier.html" target="_top" xlink:title=" ">
<polygon fill="#ffffff" stroke="#ff4500" points="619,-471.6902 486,-471.6902 486,-452.6902 619,-452.6902 619,-471.6902"/>
<text text-anchor="middle" x="552.5" y="-459.6902" font-family="Helvetica,sans-Serif" font-size="10.00" fill="#000000">SgSpecialFunctionModifier</text>
</a>
</g>
</g>
<!-- Node74&#45;&gt;Node2 -->
<g id="edge12_Node000002_Node000074" class="edge">
<title>Node74&#45;&gt;Node2</title>
<g id="a_edge12_Node000002_Node000074"><a xlink:title=" ">
<path fill="none" stroke="#9a32cd" stroke-dasharray="5,2" d="M629.4576,-459.7335C679.7263,-456.7964 739.8306,-450.3479 761,-436.1902 806.797,-405.562 828.1011,-337.4581 834.676,-312.0234"/>
<polygon fill="#9a32cd" stroke="#9a32cd" points="629.0184,-456.2522 619.224,-460.2919 629.3999,-463.2418 629.0184,-456.2522"/>
</a>
</g>
<text text-anchor="middle" x="700.5" y="-461.1902" font-family="Helvetica,sans-Serif" font-size="10.00" fill="#c0c0c0"> p_specialFunctionModifier</text>
</g>
<!-- Node59 -->
<g id="Node000059" class="node">
<title>Node59</title>
<g id="a_Node000059"><a xlink:title=" ">
<polygon fill="#ffffff" stroke="#ff4500" points="613,-434.6902 492,-434.6902 492,-415.6902 613,-415.6902 613,-434.6902"/>
<text text-anchor="middle" x="552.5" y="-422.6902" font-family="Helvetica,sans-Serif" font-size="10.00" fill="#000000">std::vector&lt; SgType * &gt;</text>
</a>
</g>
</g>
<!-- Node59&#45;&gt;Node2 -->
<g id="edge13_Node000002_Node000059" class="edge">
<title>Node59&#45;&gt;Node2</title>
<g id="a_edge13_Node000002_Node000059"><a xlink:title=" ">
<path fill="none" stroke="#9a32cd" stroke-dasharray="5,2" d="M623.0489,-422.5164C674.0959,-419.5118 737.9878,-413.2214 761,-400.1902 798.0958,-379.1839 823.2726,-332.0475 832.7768,-311.7672"/>
<polygon fill="#9a32cd" stroke="#9a32cd" points="622.8166,-419.0238 613.0267,-423.0746 623.2059,-426.013 622.8166,-419.0238"/>
</a>
</g>
<text text-anchor="middle" x="700.5" y="-424.1902" font-family="Helvetica,sans-Serif" font-size="10.00" fill="#c0c0c0"> p_exceptionSpecification</text>
</g>
<!-- Node75 -->
<g id="Node000075" class="node">
<title>Node75</title>
<g id="a_Node000075"><a xlink:href="classSgFunctionType.html" target="_top" xlink:title="This class represents a type for all functions.">
<polygon fill="#fff0f0" stroke="#ff0000" points="595.5,-273.6902 509.5,-273.6902 509.5,-254.6902 595.5,-254.6902 595.5,-273.6902"/>
<text text-anchor="middle" x="552.5" y="-261.6902" font-family="Helvetica,sans-Serif" font-size="10.00" fill="#000000">SgFunctionType</text>
</a>
</g>
</g>
<!-- Node75&#45;&gt;Node2 -->
<g id="edge16_Node000002_Node000075" class="edge">
<title>Node75&#45;&gt;Node2</title>
<g id="a_edge16_Node000002_Node000075"><a xlink:title=" ">
<path fill="none" stroke="#9a32cd" stroke-dasharray="5,2" d="M606.0024,-258.4482C648.5655,-255.3689 709.3418,-254.3135 761,-266.1902 783.4813,-271.3589 807.1622,-283.8606 821.9983,-292.6748"/>
<polygon fill="#9a32cd" stroke="#9a32cd" points="605.5559,-254.9724 595.8608,-259.2451 606.1043,-261.9509 605.5559,-254.9724"/>
</a>
</g>
<text text-anchor="middle" x="700.5" y="-280.1902" font-family="Helvetica,sans-Serif" font-size="10.00" fill="#c0c0c0"> p_type</text>
<text text-anchor="middle" x="700.5" y="-269.1902" font-family="Helvetica,sans-Serif" font-size="10.00" fill="#c0c0c0">p_type_syntax</text>
</g>
<!-- Node77 -->
<g id="Node000077" class="node">
<title>Node77</title>
<g id="a_Node000077"><a xlink:href="classSgFunctionDefinition.html" target="_top" xlink:title="This class represents the concept of a scope in C++ (e.g. global scope, fuction scope,...">
<polygon fill="#fff0f0" stroke="#ff0000" points="606,-103.6902 499,-103.6902 499,-84.6902 606,-84.6902 606,-103.6902"/>
<text text-anchor="middle" x="552.5" y="-91.6902" font-family="Helvetica,sans-Serif" font-size="10.00" fill="#000000">SgFunctionDefinition</text>
</a>
</g>
</g>
<!-- Node77&#45;&gt;Node2 -->
<g id="edge17_Node000002_Node000077" class="edge">
<title>Node77&#45;&gt;Node2</title>
<g id="a_edge17_Node000002_Node000077"><a xlink:title=" ">
<path fill="none" stroke="#9a32cd" stroke-dasharray="5,2" d="M616.4892,-84.455C661.2294,-81.2223 720.0642,-84.5475 761,-115.1902 821.0371,-160.1312 833.8078,-260.6105 836.3822,-292.3706"/>
<polygon fill="#9a32cd" stroke="#9a32cd" points="615.9736,-80.9861 606.3058,-85.32 616.5661,-87.9609 615.9736,-80.9861"/>
</a>
</g>
<text text-anchor="middle" x="700.5" y="-118.1902" font-family="Helvetica,sans-Serif" font-size="10.00" fill="#c0c0c0"> p_definition</text>
</g>
<!-- Node37 -->
<g id="Node000037" class="node">
<title>Node37</title>
<g id="a_Node000037"><a xlink:href="classSgScopeStatement.html" target="_top" xlink:title="This class represents the concept of a scope in C++ (e.g. global scope, fuction scope,...">
<polygon fill="#fff0f0" stroke="#ff0000" points="335,-168.6902 234,-168.6902 234,-149.6902 335,-149.6902 335,-168.6902"/>
<text text-anchor="middle" x="284.5" y="-156.6902" font-family="Helvetica,sans-Serif" font-size="10.00" fill="#000000">SgScopeStatement</text>
</a>
</g>
</g>
<!-- Node37&#45;&gt;Node2 -->
<g id="edge19_Node000002_Node000037" class="edge">
<title>Node37&#45;&gt;Node2</title>
<g id="a_edge19_Node000002_Node000037"><a xlink:title=" ">
<path fill="none" stroke="#9a32cd" stroke-dasharray="5,2" d="M345.2989,-152.4172C458.2103,-141.1028 694.8267,-123.7084 761,-168.1902 806.7246,-198.9264 828.0729,-266.9645 834.6677,-292.3693"/>
<polygon fill="#9a32cd" stroke="#9a32cd" points="344.6884,-148.9612 335.0948,-153.457 345.3981,-155.9251 344.6884,-148.9612"/>
</a>
</g>
<text text-anchor="middle" x="552.5" y="-144.1902" font-family="Helvetica,sans-Serif" font-size="10.00" fill="#c0c0c0"> p_scope</text>
</g>
<!-- Node37&#45;&gt;Node77 -->
<g id="edge18_Node000077_Node000037" class="edge">
<title>Node37&#45;&gt;Node77</title>
<g id="a_edge18_Node000077_Node000037"><a xlink:title=" ">
<path fill="none" stroke="#63b8ff" d="M313.166,-145.4501C328.0434,-138.7953 346.6855,-131.1841 364,-126.1902 408.6513,-113.3116 460.8404,-104.9487 498.9688,-100.014"/>
<polygon fill="#63b8ff" stroke="#63b8ff" points="311.6239,-142.3066 303.9849,-149.648 314.5347,-148.6728 311.6239,-142.3066"/>
</a>
</g>
</g>
<!-- Node81 -->
<g id="Node000081" class="node">
<title>Node81</title>
<g id="a_Node000081"><a xlink:href="classSgFunctionParameterScope.html" target="_top" xlink:title=" ">
<polygon fill="#ffffff" stroke="#ff4500" points="622,-188.6902 483,-188.6902 483,-169.6902 622,-169.6902 622,-188.6902"/>
<text text-anchor="middle" x="552.5" y="-176.6902" font-family="Helvetica,sans-Serif" font-size="10.00" fill="#000000">SgFunctionParameterScope</text>
</a>
</g>
</g>
<!-- Node37&#45;&gt;Node81 -->
<g id="edge21_Node000081_Node000037" class="edge">
<title>Node37&#45;&gt;Node81</title>
<g id="a_edge21_Node000081_Node000037"><a xlink:title=" ">
<path fill="none" stroke="#63b8ff" d="M345.3166,-163.7287C386.1835,-166.7785 440.15,-170.8059 482.7592,-173.9857"/>
<polygon fill="#63b8ff" stroke="#63b8ff" points="345.4566,-160.2295 335.2238,-162.9756 344.9356,-167.2101 345.4566,-160.2295"/>
</a>
</g>
</g>
<!-- Node37&#45;&gt;Node43 -->
<g id="edge27_Node000043_Node000037" class="edge">
<title>Node37&#45;&gt;Node43</title>
<g id="a_edge27_Node000043_Node000037"><a xlink:title=" ">
<path fill="none" stroke="#9a32cd" stroke-dasharray="5,2" d="M325.3147,-171.5678C337.6936,-175.1677 351.3611,-178.9893 364,-182.1902 408.5354,-193.4693 435.0326,-169.3681 465,-204.1902 505.237,-250.9456 443.6812,-433.66 483,-481.1902 488.4819,-487.8169 496.0576,-492.179 504.2003,-495.0159"/>
<polygon fill="#9a32cd" stroke="#9a32cd" points="326.2887,-168.2061 315.7076,-168.7443 324.3149,-174.922 326.2887,-168.2061"/>
</a>
</g>
<text text-anchor="middle" x="414.5" y="-207.1902" font-family="Helvetica,sans-Serif" font-size="10.00" fill="#c0c0c0"> p_scope</text>
</g>
<!-- Node81&#45;&gt;Node2 -->
<g id="edge20_Node000002_Node000081" class="edge">
<title>Node81&#45;&gt;Node2</title>
<g id="a_edge20_Node000002_Node000081"><a xlink:title=" ">
<path fill="none" stroke="#9a32cd" stroke-dasharray="5,2" d="M632.6459,-172.4466C673.4698,-172.5482 722.4801,-178.3693 761,-200.1902 799.237,-221.8508 823.9514,-271.4708 833.0614,-292.4934"/>
<polygon fill="#9a32cd" stroke="#9a32cd" points="632.4229,-168.9484 622.4546,-172.5378 632.4856,-175.9481 632.4229,-168.9484"/>
</a>
</g>
<text text-anchor="middle" x="700.5" y="-203.1902" font-family="Helvetica,sans-Serif" font-size="10.00" fill="#c0c0c0"> p_functionParameterScope</text>
</g>
<!-- Node43&#45;&gt;Node1 -->
<g id="edge22_Node000001_Node000043" class="edge">
<title>Node43&#45;&gt;Node1</title>
<g id="a_edge22_Node000001_Node000043"><a xlink:title=" ">
<path fill="none" stroke="#9a32cd" stroke-dasharray="5,2" d="M610.657,-495.0277C652.7745,-491.2665 710.8756,-484.534 761,-473.1902 834.0507,-456.6579 917.1606,-425.47 956.9025,-409.7545"/>
<polygon fill="#9a32cd" stroke="#9a32cd" points="610.24,-491.5505 600.5784,-495.8983 610.8425,-498.5246 610.24,-491.5505"/>
</a>
</g>
<text text-anchor="middle" x="837" y="-471.1902" font-family="Helvetica,sans-Serif" font-size="10.00" fill="#c0c0c0"> p_result_name</text>
</g>
<!-- Node43&#45;&gt;Node43 -->
<g id="edge25_Node000043_Node000043" class="edge">
<title>Node43&#45;&gt;Node43</title>
<g id="a_edge25_Node000043_Node000043"><a xlink:title=" ">
<path fill="none" stroke="#9a32cd" stroke-dasharray="5,2" d="M526.8305,-517.8796C528.2307,-522.8873 536.7872,-526.6902 552.5,-526.6902 577.0273,-526.6902 584.1173,-517.4239 573.7698,-508.773"/>
<polygon fill="#9a32cd" stroke="#9a32cd" points="530.0313,-519.2998 531.2302,-508.773 523.7284,-516.2546 530.0313,-519.2998"/>
</a>
</g>
<text text-anchor="middle" x="552.5" y="-529.6902" font-family="Helvetica,sans-Serif" font-size="10.00" fill="#c0c0c0"> p_prev_decl_item</text>
</g>
</g>
</svg>
