<?xml version="1.0" encoding="UTF-8" standalone="no"?>
<!DOCTYPE svg PUBLIC "-//W3C//DTD SVG 1.1//EN"
 "http://www.w3.org/Graphics/SVG/1.1/DTD/svg11.dtd">
<!-- Generated by graphviz version 2.40.1 (0)
 -->
<!-- Title: SgAdaRenamingRefExp Pages: 1 -->
<svg width="331pt" height="358pt"
 viewBox="0.00 0.00 331.00 358.00" xmlns="http://www.w3.org/2000/svg" xmlns:xlink="http://www.w3.org/1999/xlink">

<svg id="main" version="1.1" xmlns="http://www.w3.org/2000/svg" xmlns:xlink="http://www.w3.org/1999/xlink" xml:space="preserve" onload="init(evt)">
<style type="text/css"><![CDATA[
.node, .edge {opacity: 0.7;}
.node.selected, .edge.selected {opacity: 1;}
.edge:hover path { stroke: red; }
.edge:hover polygon { stroke: red; fill: red; }
]]></style>
<script type="application/ecmascript" xlink:href="svg.min.js"/>
<svg id="graph" class="graph">
<g id="graph0" class="graph" transform="scale(1 1) rotate(0) translate(4 354)">
<title>SgAdaRenamingRefExp</title>
<!-- Node1 -->
<g id="Node000001" class="node">
<title>Node1</title>
<g id="a_Node000001"><a xlink:title=" ">
<polygon fill="#999999" stroke="#666666" points="234.5,-19 111.5,-19 111.5,0 234.5,0 234.5,-19"/>
<text text-anchor="middle" x="173" y="-7" font-family="Helvetica,sans-Serif" font-size="10.00" fill="#000000">SgAdaRenamingRefExp</text>
</a>
</g>
</g>
<!-- Node2 -->
<g id="Node000002" class="node">
<title>Node2</title>
<g id="a_Node000002"><a xlink:href="classSgExpression.html" target="_top" xlink:title="This class represents the notion of an expression. Expressions are derived from SgLocatedNodes,...">
<polygon fill="#ffffff" stroke="#666666" points="214.5,-217 137.5,-217 137.5,-198 214.5,-198 214.5,-217"/>
<text text-anchor="middle" x="176" y="-205" font-family="Helvetica,sans-Serif" font-size="10.00" fill="#000000">SgExpression</text>
</a>
</g>
</g>
<!-- Node2&#45;&gt;Node1 -->
<g id="edge1_Node000001_Node000002" class="edge">
<title>Node2&#45;&gt;Node1</title>
<g id="a_edge1_Node000001_Node000002"><a xlink:title=" ">
<path fill="none" stroke="#63b8ff" d="M197.1556,-190.6509C199.9409,-187.4295 202.3856,-183.8484 204,-180 228.5859,-121.3925 230.065,-94.9649 204,-37 200.7544,-29.7823 194.5745,-23.69 188.5811,-19.0885"/>
<polygon fill="#63b8ff" stroke="#63b8ff" points="194.4919,-188.3612 189.8092,-197.865 199.3965,-193.3557 194.4919,-188.3612"/>
</a>
</g>
</g>
<!-- Node70 -->
<g id="Node000070" class="node">
<title>Node70</title>
<g id="a_Node000070"><a xlink:href="classSgAdaRenamingDecl.html" target="_top" xlink:title=" ">
<polygon fill="#ffffff" stroke="#ff4500" points="190,-151 80,-151 80,-132 190,-132 190,-151"/>
<text text-anchor="middle" x="135" y="-139" font-family="Helvetica,sans-Serif" font-size="10.00" fill="#000000">SgAdaRenamingDecl</text>
</a>
</g>
</g>
<!-- Node2&#45;&gt;Node70 -->
<g id="edge8_Node000070_Node000002" class="edge">
<title>Node2&#45;&gt;Node70</title>
<g id="a_edge8_Node000070_Node000002"><a xlink:title=" ">
<path fill="none" stroke="#9a32cd" stroke-dasharray="5,2" d="M159.6265,-190.3157C156.8974,-187.0254 154.2324,-183.5085 152,-180 146.1164,-170.7532 141.2911,-159.1246 138.304,-151.0799"/>
<polygon fill="#9a32cd" stroke="#9a32cd" points="157.0848,-192.7248 166.3327,-197.8945 162.3271,-188.0861 157.0848,-192.7248"/>
</a>
</g>
<text text-anchor="middle" x="178" y="-172" font-family="Helvetica,sans-Serif" font-size="10.00" fill="#c0c0c0"> p_renamed</text>
</g>
<!-- Node3 -->
<g id="Node000003" class="node">
<title>Node3</title>
<g id="a_Node000003"><a xlink:href="classSgLocatedNode.html" target="_top" xlink:title="This class represents the notion of an expression or statement which has a position within the source...">
<polygon fill="#fff0f0" stroke="#ff0000" points="323,-273 237,-273 237,-254 323,-254 323,-273"/>
<text text-anchor="middle" x="280" y="-261" font-family="Helvetica,sans-Serif" font-size="10.00" fill="#000000">SgLocatedNode</text>
</a>
</g>
</g>
<!-- Node3&#45;&gt;Node2 -->
<g id="edge2_Node000002_Node000003" class="edge">
<title>Node3&#45;&gt;Node2</title>
<g id="a_edge2_Node000002_Node000003"><a xlink:title=" ">
<path fill="none" stroke="#63b8ff" d="M252.9971,-248.96C234.3864,-238.9388 210.1701,-225.8993 193.9078,-217.1427"/>
<polygon fill="#63b8ff" stroke="#63b8ff" points="251.4205,-252.0861 261.8846,-253.7455 254.7392,-245.9228 251.4205,-252.0861"/>
</a>
</g>
</g>
<!-- Node30 -->
<g id="Node000030" class="node">
<title>Node30</title>
<g id="a_Node000030"><a xlink:href="classSg__File__Info.html" target="_top" xlink:title="This class represents the location of the code associated with the IR node in the original source cod...">
<polygon fill="#fff0f0" stroke="#ff0000" points="185.5,-350 114.5,-350 114.5,-331 185.5,-331 185.5,-350"/>
<text text-anchor="middle" x="150" y="-338" font-family="Helvetica,sans-Serif" font-size="10.00" fill="#000000">Sg_File_Info</text>
</a>
</g>
</g>
<!-- Node30&#45;&gt;Node2 -->
<g id="edge4_Node000002_Node000030" class="edge">
<title>Node30&#45;&gt;Node2</title>
<g id="a_edge4_Node000002_Node000030"><a xlink:title=" ">
<path fill="none" stroke="#9a32cd" stroke-dasharray="5,2" d="M144.2672,-321.0729C139.9621,-303.2177 135.9136,-276.2296 143,-254 147.5701,-239.6639 158.347,-225.9589 166.349,-217.1895"/>
<polygon fill="#9a32cd" stroke="#9a32cd" points="140.9254,-322.1251 146.8836,-330.8858 147.6891,-320.3216 140.9254,-322.1251"/>
</a>
</g>
<text text-anchor="middle" x="185.5" y="-261" font-family="Helvetica,sans-Serif" font-size="10.00" fill="#c0c0c0"> p_operatorPosition</text>
</g>
<!-- Node30&#45;&gt;Node3 -->
<g id="edge3_Node000003_Node000030" class="edge">
<title>Node30&#45;&gt;Node3</title>
<g id="a_edge3_Node000003_Node000030"><a xlink:title=" ">
<path fill="none" stroke="#9a32cd" stroke-dasharray="5,2" d="M175.1258,-325.6178C201.2241,-310.1596 241.2982,-286.4234 263.5941,-273.2174"/>
<polygon fill="#9a32cd" stroke="#9a32cd" points="173.0221,-322.7959 166.2017,-330.9036 176.5894,-328.8187 173.0221,-322.7959"/>
</a>
</g>
<text text-anchor="middle" x="272" y="-305" font-family="Helvetica,sans-Serif" font-size="10.00" fill="#c0c0c0"> p_endOfConstruct</text>
<text text-anchor="middle" x="272" y="-294" font-family="Helvetica,sans-Serif" font-size="10.00" fill="#c0c0c0">p_startOfConstruct</text>
</g>
<!-- Node69 -->
<g id="Node000069" class="node">
<title>Node69</title>
<g id="a_Node000069"><a xlink:href="classSgAdaRenamingSymbol.html" target="_top" xlink:title=" ">
<polygon fill="#ffffff" stroke="#bfbfbf" points="189.5,-85 66.5,-85 66.5,-66 189.5,-66 189.5,-85"/>
<text text-anchor="middle" x="128" y="-73" font-family="Helvetica,sans-Serif" font-size="10.00" fill="#000000">SgAdaRenamingSymbol</text>
</a>
</g>
</g>
<!-- Node69&#45;&gt;Node1 -->
<g id="edge5_Node000001_Node000069" class="edge">
<title>Node69&#45;&gt;Node1</title>
<g id="a_edge5_Node000001_Node000069"><a xlink:title=" ">
<path fill="none" stroke="#9a32cd" stroke-dasharray="5,2" d="M140.4834,-57.1911C148.8516,-44.9176 159.5426,-29.2375 166.3329,-19.2785"/>
<polygon fill="#9a32cd" stroke="#9a32cd" points="137.3815,-55.5275 134.6399,-65.7615 143.1651,-59.4709 137.3815,-55.5275"/>
</a>
</g>
<text text-anchor="middle" x="177" y="-40" font-family="Helvetica,sans-Serif" font-size="10.00" fill="#c0c0c0"> p_symbol</text>
</g>
<!-- Node12 -->
<g id="Node000012" class="node">
<title>Node12</title>
<g id="a_Node000012"><a xlink:href="classSgSymbol.html" target="_top" xlink:title="This class represents the concept of a name within the compiler.">
<polygon fill="#fff0f0" stroke="#ff0000" points="62,-151 0,-151 0,-132 62,-132 62,-151"/>
<text text-anchor="middle" x="31" y="-139" font-family="Helvetica,sans-Serif" font-size="10.00" fill="#000000">SgSymbol</text>
</a>
</g>
</g>
<!-- Node12&#45;&gt;Node69 -->
<g id="edge6_Node000069_Node000012" class="edge">
<title>Node12&#45;&gt;Node69</title>
<g id="a_edge6_Node000069_Node000012"><a xlink:title=" ">
<path fill="none" stroke="#63b8ff" d="M53.8154,-125.9761C72.4522,-113.2954 98.2008,-95.7758 113.944,-85.0639"/>
<polygon fill="#63b8ff" stroke="#63b8ff" points="51.6115,-123.2423 45.3127,-131.7615 55.5493,-129.0297 51.6115,-123.2423"/>
</a>
</g>
</g>
<!-- Node70&#45;&gt;Node69 -->
<g id="edge7_Node000069_Node000070" class="edge">
<title>Node70&#45;&gt;Node69</title>
<g id="a_edge7_Node000069_Node000070"><a xlink:title=" ">
<path fill="none" stroke="#9a32cd" stroke-dasharray="5,2" d="M132.9034,-121.732C131.6269,-109.6966 130.052,-94.847 129.0371,-85.2785"/>
<polygon fill="#9a32cd" stroke="#9a32cd" points="129.4319,-122.1864 133.9671,-131.7615 136.3928,-121.4481 129.4319,-122.1864"/>
</a>
</g>
<text text-anchor="middle" x="162.5" y="-106" font-family="Helvetica,sans-Serif" font-size="10.00" fill="#c0c0c0"> p_declaration</text>
</g>
</g>
</svg>
</svg>

<style type='text/css'>
<![CDATA[
[data-mouse-over-selected='false'] { opacity: 0.7; }
[data-mouse-over-selected='true']  { opacity: 1.0; }
]]>
</style>
<script type="application/ecmascript"><![CDATA[
document.addEventListener('DOMContentLoaded', (event) => {
  highlightEdges();
  highlightAdjacentNodes();
});
]]></script>
</svg>
