<?xml version="1.0" encoding="UTF-8" standalone="no"?>
<!DOCTYPE svg PUBLIC "-//W3C//DTD SVG 1.1//EN"
 "http://www.w3.org/Graphics/SVG/1.1/DTD/svg11.dtd">
<!-- Generated by graphviz version 2.40.1 (0)
 -->
<!-- Title: Rose::BinaryAnalysis::ByteCode::Code Pages: 1 -->
<svg width="252pt" height="104pt"
 viewBox="0.00 0.00 251.50 104.00" xmlns="http://www.w3.org/2000/svg" xmlns:xlink="http://www.w3.org/1999/xlink">
<g id="graph0" class="graph" transform="scale(1 1) rotate(0) translate(4 100)">
<title>Rose::BinaryAnalysis::ByteCode::Code</title>
<!-- Node1 -->
<g id="Node000001" class="node">
<title>Node1</title>
<g id="a_Node000001"><a xlink:title=" ">
<polygon fill="#999999" stroke="#666666" points="176,-96 65,-96 65,-66 176,-66 176,-96"/>
<text text-anchor="start" x="73" y="-84" font-family="Helvetica,sans-Serif" font-size="10.00" fill="#000000">Rose::BinaryAnalysis</text>
<text text-anchor="middle" x="120.5" y="-73" font-family="Helvetica,sans-Serif" font-size="10.00" fill="#000000">::ByteCode::Code</text>
</a>
</g>
</g>
<!-- Node2 -->
<g id="Node000002" class="node">
<title>Node2</title>
<g id="a_Node000002"><a xlink:href="classRose_1_1BinaryAnalysis_1_1ByteCode_1_1CilCode.html" target="_top" xlink:title=" ">
<polygon fill="#ffffff" stroke="#bfbfbf" points="111,-30 0,-30 0,0 111,0 111,-30"/>
<text text-anchor="start" x="8" y="-18" font-family="Helvetica,sans-Serif" font-size="10.00" fill="#000000">Rose::BinaryAnalysis</text>
<text text-anchor="middle" x="55.5" y="-7" font-family="Helvetica,sans-Serif" font-size="10.00" fill="#000000">::ByteCode::CilCode</text>
</a>
</g>
</g>
<!-- Node1&#45;&gt;Node2 -->
<g id="edge1_Node000001_Node000002" class="edge">
<title>Node1&#45;&gt;Node2</title>
<g id="a_edge1_Node000001_Node000002"><a xlink:title=" ">
<path fill="none" stroke="#63b8ff" d="M98.3841,-58.5439C89.1938,-49.2122 78.7656,-38.6236 70.4939,-30.2246"/>
<polygon fill="#63b8ff" stroke="#63b8ff" points="95.9137,-61.0234 105.4243,-65.6924 100.9011,-56.1116 95.9137,-61.0234"/>
</a>
</g>
</g>
<!-- Node3 -->
<g id="Node000003" class="node">
<title>Node3</title>
<g id="a_Node000003"><a xlink:href="classRose_1_1BinaryAnalysis_1_1ByteCode_1_1JvmCode.html" target="_top" xlink:title=" ">
<polygon fill="#ffffff" stroke="#bfbfbf" points="243.5,-30 129.5,-30 129.5,0 243.5,0 243.5,-30"/>
<text text-anchor="start" x="137.5" y="-18" font-family="Helvetica,sans-Serif" font-size="10.00" fill="#000000">Rose::BinaryAnalysis</text>
<text text-anchor="middle" x="186.5" y="-7" font-family="Helvetica,sans-Serif" font-size="10.00" fill="#000000">::ByteCode::JvmCode</text>
</a>
</g>
</g>
<!-- Node1&#45;&gt;Node3 -->
<g id="edge2_Node000001_Node000003" class="edge">
<title>Node1&#45;&gt;Node3</title>
<g id="a_edge2_Node000001_Node000003"><a xlink:title=" ">
<path fill="none" stroke="#63b8ff" d="M142.9561,-58.5439C152.2878,-49.2122 162.8764,-38.6236 171.2754,-30.2246"/>
<polygon fill="#63b8ff" stroke="#63b8ff" points="140.4038,-56.1464 135.8076,-65.6924 145.3536,-61.0962 140.4038,-56.1464"/>
</a>
</g>
</g>
</g>
</svg>
