<?xml version="1.0" encoding="UTF-8" standalone="no"?>
<!DOCTYPE svg PUBLIC "-//W3C//DTD SVG 1.1//EN"
 "http://www.w3.org/Graphics/SVG/1.1/DTD/svg11.dtd">
<!-- Generated by graphviz version 2.40.1 (0)
 -->
<!-- Title: SageInterface::Ada::extend Pages: 1 -->
<svg width="455pt" height="56pt"
 viewBox="0.00 0.00 455.00 56.00" xmlns="http://www.w3.org/2000/svg" xmlns:xlink="http://www.w3.org/1999/xlink">
<g id="graph0" class="graph" transform="scale(1 1) rotate(0) translate(4 52)">
<title>SageInterface::Ada::extend</title>
<!-- Node1 -->
<g id="Node000001" class="node">
<title>Node1</title>
<g id="a_Node000001"><a xlink:title="resize the container if pos is outside the valid index range">
<polygon fill="#999999" stroke="#666666" points="447,-30 346,-30 346,0 447,0 447,-30"/>
<text text-anchor="start" x="354" y="-18" font-family="Helvetica,sans-Serif" font-size="10.00" fill="#000000">SageInterface::Ada</text>
<text text-anchor="middle" x="396.5" y="-7" font-family="Helvetica,sans-Serif" font-size="10.00" fill="#000000">::extend</text>
</a>
</g>
</g>
<!-- Node1&#45;&gt;Node1 -->
<g id="edge1_Node000001_Node000001" class="edge">
<title>Node1&#45;&gt;Node1</title>
<g id="a_edge1_Node000001_Node000001"><a xlink:title=" ">
<path fill="none" stroke="#63b8ff" d="M423.8058,-40.5975C420.0746,-44.9704 410.9727,-48 396.5,-48 372.125,-48 362.9844,-39.4063 369.0781,-30.2754"/>
<polygon fill="#63b8ff" stroke="#63b8ff" points="427.3091,-40.3141 423.9219,-30.2754 420.3096,-40.2354 427.3091,-40.3141"/>
</a>
</g>
</g>
<!-- Node2 -->
<g id="Node000002" class="node">
<title>Node2</title>
<g id="a_Node000002"><a xlink:href="namespaceSageInterface_1_1Ada.html#a2569a904245da73749a35028e90f0cec" target="_top" xlink:title="returns a list of arguments with named arguments placed at the correct position by taking into accoun...">
<polygon fill="#ffffff" stroke="#666666" points="310,-30 170,-30 170,0 310,0 310,-30"/>
<text text-anchor="start" x="178" y="-18" font-family="Helvetica,sans-Serif" font-size="10.00" fill="#000000">SageInterface::Ada</text>
<text text-anchor="middle" x="240" y="-7" font-family="Helvetica,sans-Serif" font-size="10.00" fill="#000000">::normalizedCallArguments2</text>
</a>
</g>
</g>
<!-- Node1&#45;&gt;Node2 -->
<g id="edge2_Node000001_Node000002" class="edge">
<title>Node1&#45;&gt;Node2</title>
<g id="a_edge2_Node000001_Node000002"><a xlink:title=" ">
<path fill="none" stroke="#63b8ff" d="M335.6663,-15C327.3137,-15 318.6821,-15 310.1791,-15"/>
<polygon fill="#63b8ff" stroke="#63b8ff" points="335.689,-18.5001 345.6889,-15 335.6889,-11.5001 335.689,-18.5001"/>
</a>
</g>
</g>
<!-- Node2&#45;&gt;Node2 -->
<g id="edge5_Node000002_Node000002" class="edge">
<title>Node2&#45;&gt;Node2</title>
<g id="a_edge5_Node000002_Node000002"><a xlink:title=" ">
<path fill="none" stroke="#63b8ff" d="M267.3058,-40.5975C263.5746,-44.9704 254.4727,-48 240,-48 215.625,-48 206.4844,-39.4063 212.5781,-30.2754"/>
<polygon fill="#63b8ff" stroke="#63b8ff" points="270.8091,-40.3141 267.4219,-30.2754 263.8096,-40.2354 270.8091,-40.3141"/>
</a>
</g>
</g>
<!-- Node3 -->
<g id="Node000003" class="node">
<title>Node3</title>
<g id="a_Node000003"><a xlink:href="namespaceSageInterface_1_1Ada.html#aff4fc6bd85f40960fd9b32f47eb45639" target="_top" xlink:title="attempts to identify the argument list automatically and uses it to invoke the preceding normalizedCa...">
<polygon fill="#ffffff" stroke="#666666" points="134,-30 0,-30 0,0 134,0 134,-30"/>
<text text-anchor="start" x="8" y="-18" font-family="Helvetica,sans-Serif" font-size="10.00" fill="#000000">SageInterface::Ada</text>
<text text-anchor="middle" x="67" y="-7" font-family="Helvetica,sans-Serif" font-size="10.00" fill="#000000">::normalizedCallArguments</text>
</a>
</g>
</g>
<!-- Node2&#45;&gt;Node3 -->
<g id="edge3_Node000002_Node000003" class="edge">
<title>Node2&#45;&gt;Node3</title>
<g id="a_edge3_Node000002_Node000003"><a xlink:title=" ">
<path fill="none" stroke="#63b8ff" d="M159.4134,-15C150.9857,-15 142.4829,-15 134.2268,-15"/>
<polygon fill="#63b8ff" stroke="#63b8ff" points="159.6343,-18.5001 169.6343,-15 159.6342,-11.5001 159.6343,-18.5001"/>
</a>
</g>
</g>
<!-- Node3&#45;&gt;Node3 -->
<g id="edge4_Node000003_Node000003" class="edge">
<title>Node3&#45;&gt;Node3</title>
<g id="a_edge4_Node000003_Node000003"><a xlink:title=" ">
<path fill="none" stroke="#63b8ff" d="M97.1064,-40.5975C92.9925,-44.9704 82.957,-48 67,-48 40.125,-48 30.0469,-39.4063 36.7656,-30.2754"/>
<polygon fill="#63b8ff" stroke="#63b8ff" points="100.6101,-40.318 97.2344,-30.2754 93.6106,-40.2312 100.6101,-40.318"/>
</a>
</g>
</g>
</g>
</svg>
