<?xml version="1.0" encoding="UTF-8" standalone="no"?>
<!DOCTYPE svg PUBLIC "-//W3C//DTD SVG 1.1//EN"
 "http://www.w3.org/Graphics/SVG/1.1/DTD/svg11.dtd">
<!-- Generated by graphviz version 2.40.1 (0)
 -->
<!-- Title: SageBuilder::buildNondefiningFunctionDeclaration Pages: 1 -->
<svg width="577pt" height="182pt"
 viewBox="0.00 0.00 577.00 182.00" xmlns="http://www.w3.org/2000/svg" xmlns:xlink="http://www.w3.org/1999/xlink">
<g id="graph0" class="graph" transform="scale(1 1) rotate(0) translate(4 178)">
<title>SageBuilder::buildNondefiningFunctionDeclaration</title>
<!-- Node1 -->
<g id="Node000001" class="node">
<title>Node1</title>
<g id="a_Node000001"><a xlink:title="Build a prototype for a function, handle function type, symbol etc transparently.">
<polygon fill="#999999" stroke="#666666" points="569,-102 422,-102 422,-72 569,-72 569,-102"/>
<text text-anchor="start" x="430" y="-90" font-family="Helvetica,sans-Serif" font-size="10.00" fill="#000000">SageBuilder::buildNondefining</text>
<text text-anchor="middle" x="495.5" y="-79" font-family="Helvetica,sans-Serif" font-size="10.00" fill="#000000">FunctionDeclaration</text>
</a>
</g>
</g>
<!-- Node2 -->
<g id="Node000002" class="node">
<title>Node2</title>
<g id="a_Node000002"><a xlink:href="namespaceSageBuilder.html#a146ba0178431b1cd9b8e1d63d34559e0" target="_top" xlink:title="Build a variable declaration, handle symbol table transparently.">
<polygon fill="#ffffff" stroke="#666666" points="378,-174 247,-174 247,-144 378,-144 378,-174"/>
<text text-anchor="start" x="255" y="-162" font-family="Helvetica,sans-Serif" font-size="10.00" fill="#000000">SageBuilder::buildDefining</text>
<text text-anchor="middle" x="312.5" y="-151" font-family="Helvetica,sans-Serif" font-size="10.00" fill="#000000">FunctionDeclaration</text>
</a>
</g>
</g>
<!-- Node1&#45;&gt;Node2 -->
<g id="edge1_Node000001_Node000002" class="edge">
<title>Node1&#45;&gt;Node2</title>
<g id="a_edge1_Node000001_Node000002"><a xlink:title=" ">
<path fill="none" stroke="#63b8ff" d="M453.9896,-106.3366C433.6854,-115.5009 408.7697,-126.3156 386,-135 377.973,-138.0615 369.3658,-141.0923 360.9701,-143.9163"/>
<polygon fill="#63b8ff" stroke="#63b8ff" points="455.6071,-109.446 463.2625,-102.1217 452.7105,-103.0734 455.6071,-109.446"/>
</a>
</g>
</g>
<!-- Node3 -->
<g id="Node000003" class="node">
<title>Node3</title>
<g id="a_Node000003"><a xlink:href="namespaceSageInterface.html#abd5184ade09a0f2c3d80dfef5c7543f7" target="_top" xlink:title="Function to delete AST subtree&#39;s nodes only, users must take care of any dangling pointers,...">
<polygon fill="#ffffff" stroke="#666666" points="383,-126 242,-126 242,-96 383,-96 383,-126"/>
<text text-anchor="start" x="250" y="-114" font-family="Helvetica,sans-Serif" font-size="10.00" fill="#000000">SageInterface::buildFunction</text>
<text text-anchor="middle" x="312.5" y="-103" font-family="Helvetica,sans-Serif" font-size="10.00" fill="#000000">Prototype</text>
</a>
</g>
</g>
<!-- Node1&#45;&gt;Node3 -->
<g id="edge2_Node000001_Node000003" class="edge">
<title>Node1&#45;&gt;Node3</title>
<g id="a_edge2_Node000001_Node000003"><a xlink:title=" ">
<path fill="none" stroke="#63b8ff" d="M411.8698,-97.9679C402.2271,-99.2325 392.467,-100.5125 383.022,-101.7512"/>
<polygon fill="#63b8ff" stroke="#63b8ff" points="412.398,-101.4287 421.8579,-96.658 411.4877,-94.4881 412.398,-101.4287"/>
</a>
</g>
</g>
<!-- Node6 -->
<g id="Node000006" class="node">
<title>Node6</title>
<g id="a_Node000006"><a xlink:href="namespaceSageBuilder.html#ad2605873abf186d720ef267fe4f56ef2" target="_top" xlink:title="Build SgFunctionRefExp based on a C function&#39;s name. It will lookup symbol table internally starting ...">
<polygon fill="#ffffff" stroke="#666666" points="379,-78 246,-78 246,-48 379,-48 379,-78"/>
<text text-anchor="start" x="254" y="-66" font-family="Helvetica,sans-Serif" font-size="10.00" fill="#000000">SageBuilder::buildFunction</text>
<text text-anchor="middle" x="312.5" y="-55" font-family="Helvetica,sans-Serif" font-size="10.00" fill="#000000">RefExp</text>
</a>
</g>
</g>
<!-- Node1&#45;&gt;Node6 -->
<g id="edge4_Node000001_Node000006" class="edge">
<title>Node1&#45;&gt;Node6</title>
<g id="a_edge4_Node000001_Node000006"><a xlink:title=" ">
<path fill="none" stroke="#63b8ff" d="M411.8628,-76.0312C400.913,-74.5952 389.812,-73.1393 379.1932,-71.7466"/>
<polygon fill="#63b8ff" stroke="#63b8ff" points="411.4877,-79.5119 421.8579,-77.342 412.398,-72.5713 411.4877,-79.5119"/>
</a>
</g>
</g>
<!-- Node7 -->
<g id="Node000007" class="node">
<title>Node7</title>
<g id="a_Node000007"><a xlink:href="namespaceSageBuilder.html#a51144632a03e542fe74a08f2b9aa9fb0" target="_top" xlink:title="Build a prototype for an existing function declaration (defining or nondefining is fine)">
<polygon fill="#ffffff" stroke="#666666" points="386,-30 239,-30 239,0 386,0 386,-30"/>
<text text-anchor="start" x="247" y="-18" font-family="Helvetica,sans-Serif" font-size="10.00" fill="#000000">SageBuilder::buildNondefining</text>
<text text-anchor="middle" x="312.5" y="-7" font-family="Helvetica,sans-Serif" font-size="10.00" fill="#000000">FunctionDeclaration</text>
</a>
</g>
</g>
<!-- Node1&#45;&gt;Node7 -->
<g id="edge5_Node000001_Node000007" class="edge">
<title>Node1&#45;&gt;Node7</title>
<g id="a_edge5_Node000001_Node000007"><a xlink:title=" ">
<path fill="none" stroke="#63b8ff" d="M453.9896,-67.6634C433.6854,-58.4991 408.7697,-47.6844 386,-39 377.973,-35.9385 369.3658,-32.9077 360.9701,-30.0837"/>
<polygon fill="#63b8ff" stroke="#63b8ff" points="452.7105,-70.9266 463.2625,-71.8783 455.6071,-64.554 452.7105,-70.9266"/>
</a>
</g>
</g>
<!-- Node4 -->
<g id="Node000004" class="node">
<title>Node4</title>
<g id="a_Node000004"><a xlink:href="namespaceSageInterface.html#a106801ca96f9fbd27fc3a724d8f42b79" target="_top" xlink:title="Function to delete AST subtree&#39;s nodes only, users must take care of any dangling pointers,...">
<polygon fill="#fff0f0" stroke="#ff0000" points="203,-126 0,-126 0,-96 203,-96 203,-126"/>
<text text-anchor="start" x="8" y="-114" font-family="Helvetica,sans-Serif" font-size="10.00" fill="#000000">SageInterface::replaceDefining</text>
<text text-anchor="middle" x="101.5" y="-103" font-family="Helvetica,sans-Serif" font-size="10.00" fill="#000000">FunctionDeclarationWithFunctionPrototype</text>
</a>
</g>
</g>
<!-- Node3&#45;&gt;Node4 -->
<g id="edge3_Node000003_Node000004" class="edge">
<title>Node3&#45;&gt;Node4</title>
<g id="a_edge3_Node000003_Node000004"><a xlink:title=" ">
<path fill="none" stroke="#63b8ff" d="M231.8781,-111C222.4841,-111 212.8112,-111 203.1807,-111"/>
<polygon fill="#63b8ff" stroke="#63b8ff" points="231.9467,-114.5001 241.9467,-111 231.9467,-107.5001 231.9467,-114.5001"/>
</a>
</g>
</g>
</g>
</svg>
