<?xml version="1.0" encoding="UTF-8" standalone="no"?>
<!DOCTYPE svg PUBLIC "-//W3C//DTD SVG 1.1//EN"
 "http://www.w3.org/Graphics/SVG/1.1/DTD/svg11.dtd">
<!-- Generated by graphviz version 2.40.1 (0)
 -->
<!-- Title: SageBuilder::buildCompoundLiteralExp_nfi Pages: 1 -->
<svg width="497pt" height="38pt"
 viewBox="0.00 0.00 497.00 38.00" xmlns="http://www.w3.org/2000/svg" xmlns:xlink="http://www.w3.org/1999/xlink">
<g id="graph0" class="graph" transform="scale(1 1) rotate(0) translate(4 34)">
<title>SageBuilder::buildCompoundLiteralExp_nfi</title>
<!-- Node1 -->
<g id="Node000001" class="node">
<title>Node1</title>
<g id="a_Node000001"><a xlink:title="Build function for compound literals (uses a SgVariableSymbol and is similar to buildVarRefExp_nfi())...">
<polygon fill="#999999" stroke="#666666" points="143,-30 0,-30 0,0 143,0 143,-30"/>
<text text-anchor="start" x="8" y="-18" font-family="Helvetica,sans-Serif" font-size="10.00" fill="#000000">SageBuilder::buildCompound</text>
<text text-anchor="middle" x="71.5" y="-7" font-family="Helvetica,sans-Serif" font-size="10.00" fill="#000000">LiteralExp_nfi</text>
</a>
</g>
</g>
<!-- Node2 -->
<g id="Node000002" class="node">
<title>Node2</title>
<g id="a_Node000002"><a xlink:href="namespaceSageInterface.html#ac2dd84efb4bec39069ab07683078e29c" target="_top" xlink:title="Set current node&#39;s source position as NULL.">
<polygon fill="#ffffff" stroke="#666666" points="325,-30 179,-30 179,0 325,0 325,-30"/>
<text text-anchor="start" x="187" y="-18" font-family="Helvetica,sans-Serif" font-size="10.00" fill="#000000">SageInterface::setOneSource</text>
<text text-anchor="middle" x="252" y="-7" font-family="Helvetica,sans-Serif" font-size="10.00" fill="#000000">PositionNull</text>
</a>
</g>
</g>
<!-- Node1&#45;&gt;Node2 -->
<g id="edge1_Node000001_Node000002" class="edge">
<title>Node1&#45;&gt;Node2</title>
<g id="a_edge1_Node000001_Node000002"><a xlink:title=" ">
<path fill="none" stroke="#63b8ff" d="M143.0976,-15C151.4247,-15 159.9733,-15 168.4428,-15"/>
<polygon fill="#63b8ff" stroke="#63b8ff" points="168.7144,-18.5001 178.7144,-15 168.7143,-11.5001 168.7144,-18.5001"/>
</a>
</g>
</g>
<!-- Node3 -->
<g id="Node000003" class="node">
<title>Node3</title>
<g id="a_Node000003"><a xlink:href="namespaceSageInterface.html#a5f850caf33a789c71d6aeda65952019a" target="_top" xlink:title="Set the source code positon for the current (input) node.">
<polygon fill="#fff0f0" stroke="#ff0000" points="489,-30 361,-30 361,0 489,0 489,-30"/>
<text text-anchor="start" x="369" y="-18" font-family="Helvetica,sans-Serif" font-size="10.00" fill="#000000">SageInterface::setSource</text>
<text text-anchor="middle" x="425" y="-7" font-family="Helvetica,sans-Serif" font-size="10.00" fill="#000000">Position</text>
</a>
</g>
</g>
<!-- Node2&#45;&gt;Node3 -->
<g id="edge2_Node000002_Node000003" class="edge">
<title>Node2&#45;&gt;Node3</title>
<g id="a_edge2_Node000002_Node000003"><a xlink:title=" ">
<path fill="none" stroke="#63b8ff" d="M325.1168,-15C333.5742,-15 342.2066,-15 350.6798,-15"/>
<polygon fill="#63b8ff" stroke="#63b8ff" points="350.9139,-18.5001 360.9139,-15 350.9139,-11.5001 350.9139,-18.5001"/>
</a>
</g>
</g>
</g>
</svg>
