<?xml version="1.0" encoding="UTF-8" standalone="no"?>
<!DOCTYPE svg PUBLIC "-//W3C//DTD SVG 1.1//EN"
 "http://www.w3.org/Graphics/SVG/1.1/DTD/svg11.dtd">
<!-- Generated by graphviz version 2.40.1 (0)
 -->
<!-- Title: SageInterface::Transformation_Record Pages: 1 -->
<svg width="743pt" height="145pt"
 viewBox="0.00 0.00 743.00 145.24" xmlns="http://www.w3.org/2000/svg" xmlns:xlink="http://www.w3.org/1999/xlink">
<g id="graph0" class="graph" transform="scale(1 1) rotate(0) translate(4 141.2351)">
<title>SageInterface::Transformation_Record</title>
<!-- Node1 -->
<g id="Node000001" class="node">
<title>Node1</title>
<g id="a_Node000001"><a xlink:title=" ">
<polygon fill="#999999" stroke="#666666" points="735,-90.2351 587,-90.2351 587,-60.2351 735,-60.2351 735,-90.2351"/>
<text text-anchor="start" x="595" y="-78.2351" font-family="Helvetica,sans-Serif" font-size="10.00" fill="#000000">SageInterface::Transformation</text>
<text text-anchor="middle" x="661" y="-67.2351" font-family="Helvetica,sans-Serif" font-size="10.00" fill="#000000">_Record</text>
</a>
</g>
</g>
<!-- Node2 -->
<g id="Node000002" class="node">
<title>Node2</title>
<g id="a_Node000002"><a xlink:title=" ">
<polygon fill="#ffffff" stroke="#666666" points="424.5,-118.2351 289.5,-118.2351 289.5,-88.2351 424.5,-88.2351 424.5,-118.2351"/>
<text text-anchor="start" x="297.5" y="-106.2351" font-family="Helvetica,sans-Serif" font-size="10.00" fill="#000000">std::map&lt; SgForStatement</text>
<text text-anchor="middle" x="357" y="-95.2351" font-family="Helvetica,sans-Serif" font-size="10.00" fill="#000000"> *, bool &gt;</text>
</a>
</g>
</g>
<!-- Node2&#45;&gt;Node1 -->
<g id="edge1_Node000001_Node000002" class="edge">
<title>Node2&#45;&gt;Node1</title>
<g id="a_edge1_Node000001_Node000002"><a xlink:title=" ">
<path fill="none" stroke="#9a32cd" stroke-dasharray="5,2" d="M434.9344,-96.057C481.7233,-91.7475 540.9043,-86.2966 586.9772,-82.053"/>
<polygon fill="#9a32cd" stroke="#9a32cd" points="434.482,-92.5837 424.8452,-96.9862 435.124,-99.5542 434.482,-92.5837"/>
</a>
</g>
<text text-anchor="start" x="460" y="-107.2351" font-family="Helvetica,sans-Serif" font-size="10.00" fill="#c0c0c0"> forLoopInitNormalization</text>
<text text-anchor="middle" x="514.5" y="-96.2351" font-family="Helvetica,sans-Serif" font-size="10.00" fill="#c0c0c0">Table</text>
</g>
<!-- Node3 -->
<g id="Node000003" class="node">
<title>Node3</title>
<g id="a_Node000003"><a xlink:href="classSgForStatement.html" target="_top" xlink:title="This class represents the concept of a for loop.">
<polygon fill="#fff0f0" stroke="#ff0000" points="90,-135.7351 2,-135.7351 2,-116.7351 90,-116.7351 90,-135.7351"/>
<text text-anchor="middle" x="46" y="-123.7351" font-family="Helvetica,sans-Serif" font-size="10.00" fill="#000000">SgForStatement</text>
</a>
</g>
</g>
<!-- Node3&#45;&gt;Node2 -->
<g id="edge2_Node000002_Node000003" class="edge">
<title>Node3&#45;&gt;Node2</title>
<g id="a_edge2_Node000002_Node000003"><a xlink:title=" ">
<path fill="none" stroke="#9a32cd" stroke-dasharray="5,2" d="M100.3723,-127.1374C142.4176,-127.3015 202.0291,-126.372 254,-121.2351 265.4712,-120.1013 277.589,-118.4225 289.3267,-116.5388"/>
<polygon fill="#9a32cd" stroke="#9a32cd" points="100.3657,-123.6374 90.3445,-127.0763 100.3229,-130.6373 100.3657,-123.6374"/>
</a>
</g>
<text text-anchor="middle" x="182" y="-129.2351" font-family="Helvetica,sans-Serif" font-size="10.00" fill="#c0c0c0"> keys</text>
</g>
<!-- Node73 -->
<g id="Node000073" class="node">
<title>Node73</title>
<g id="a_Node000073"><a xlink:title=" ">
<polygon fill="#ffffff" stroke="#666666" points="442,-69.7351 272,-69.7351 272,-28.7351 442,-28.7351 442,-69.7351"/>
<text text-anchor="start" x="280" y="-57.7351" font-family="Helvetica,sans-Serif" font-size="10.00" fill="#000000">std::map&lt; SgForStatement</text>
<text text-anchor="start" x="280" y="-46.7351" font-family="Helvetica,sans-Serif" font-size="10.00" fill="#000000"> *, std::pair&lt; SgVariableDeclaration</text>
<text text-anchor="middle" x="357" y="-35.7351" font-family="Helvetica,sans-Serif" font-size="10.00" fill="#000000"> *, SgVariableDeclaration * &gt; &gt;</text>
</a>
</g>
</g>
<!-- Node3&#45;&gt;Node73 -->
<g id="edge5_Node000073_Node000003" class="edge">
<title>Node3&#45;&gt;Node73</title>
<g id="a_edge5_Node000073_Node000003"><a xlink:title=" ">
<path fill="none" stroke="#9a32cd" stroke-dasharray="5,2" d="M86.3614,-114.0302C94.1602,-111.9146 102.3,-109.8722 110,-108.2351 173.2629,-94.7848 191.8691,-105.2033 254,-87.2351 262.4099,-84.803 263.8659,-82.4723 272,-79.2351 279.997,-76.0525 288.4812,-72.8527 296.8741,-69.79"/>
<polygon fill="#9a32cd" stroke="#9a32cd" points="85.4128,-110.6611 76.7242,-116.724 87.2973,-117.4027 85.4128,-110.6611"/>
</a>
</g>
<text text-anchor="middle" x="182" y="-111.2351" font-family="Helvetica,sans-Serif" font-size="10.00" fill="#c0c0c0"> keys</text>
</g>
<!-- Node24 -->
<g id="Node000024" class="node">
<title>Node24</title>
<g id="a_Node000024"><a xlink:title=" ">
<polygon fill="#fff0f0" stroke="#ff0000" points="92,-45.7351 0,-45.7351 0,-26.7351 92,-26.7351 92,-45.7351"/>
<text text-anchor="middle" x="46" y="-33.7351" font-family="Helvetica,sans-Serif" font-size="10.00" fill="#000000">std::map&lt; K, T &gt;</text>
</a>
</g>
</g>
<!-- Node24&#45;&gt;Node2 -->
<g id="edge3_Node000002_Node000024" class="edge">
<title>Node24&#45;&gt;Node2</title>
<g id="a_edge3_Node000002_Node000024"><a xlink:title=" ">
<path fill="none" stroke="#ffa500" stroke-dasharray="5,2" d="M102.2868,-42.5646C159.0644,-49.1925 240.2575,-59.4284 254,-65.2351 263.3357,-69.1799 262.9554,-74.6622 272,-79.2351 278.7053,-82.6253 285.9578,-85.597 293.3024,-88.1861"/>
<polygon fill="#ffa500" stroke="#ffa500" points="102.6804,-39.0869 92.3438,-41.4115 101.874,-46.0403 102.6804,-39.0869"/>
</a>
</g>
<text text-anchor="start" x="135" y="-79.2351" font-family="Helvetica,sans-Serif" font-size="10.00" fill="#c0c0c0"> &lt; SgForStatement *,</text>
<text text-anchor="middle" x="182" y="-68.2351" font-family="Helvetica,sans-Serif" font-size="10.00" fill="#c0c0c0"> bool &gt;</text>
</g>
<!-- Node24&#45;&gt;Node73 -->
<g id="edge6_Node000073_Node000024" class="edge">
<title>Node24&#45;&gt;Node73</title>
<g id="a_edge6_Node000073_Node000024"><a xlink:title=" ">
<path fill="none" stroke="#ffa500" stroke-dasharray="5,2" d="M72.5516,-22.2266C83.7795,-17.0538 97.2012,-11.8244 110,-9.2351 172.7292,3.4553 191.0946,2.5507 254,-9.2351 274.5519,-13.0857 296.2754,-20.9089 314.447,-28.6236"/>
<polygon fill="#ffa500" stroke="#ffa500" points="70.7995,-19.186 63.3202,-26.6901 73.8466,-25.488 70.7995,-19.186"/>
</a>
</g>
<text text-anchor="start" x="110" y="-34.2351" font-family="Helvetica,sans-Serif" font-size="10.00" fill="#c0c0c0"> &lt; SgForStatement *,</text>
<text text-anchor="start" x="110" y="-23.2351" font-family="Helvetica,sans-Serif" font-size="10.00" fill="#c0c0c0"> std::pair&lt; SgVariableDeclaration</text>
<text text-anchor="middle" x="182" y="-12.2351" font-family="Helvetica,sans-Serif" font-size="10.00" fill="#c0c0c0"> *, SgVariableDeclaration * &gt; &gt;</text>
</g>
<!-- Node73&#45;&gt;Node1 -->
<g id="edge4_Node000001_Node000073" class="edge">
<title>Node73&#45;&gt;Node1</title>
<g id="a_edge4_Node000001_Node000073"><a xlink:title=" ">
<path fill="none" stroke="#9a32cd" stroke-dasharray="5,2" d="M452.2679,-48.9266C488.8707,-49.7117 530.9785,-51.7148 569,-56.2351 577.4215,-57.2364 586.2177,-58.6148 594.8889,-60.1758"/>
<polygon fill="#9a32cd" stroke="#9a32cd" points="452.1617,-45.4241 442.098,-48.7364 452.0308,-52.4229 452.1617,-45.4241"/>
</a>
</g>
<text text-anchor="start" x="460" y="-70.2351" font-family="Helvetica,sans-Serif" font-size="10.00" fill="#c0c0c0"> forLoopInitNormalization</text>
<text text-anchor="middle" x="514.5" y="-59.2351" font-family="Helvetica,sans-Serif" font-size="10.00" fill="#c0c0c0">Record</text>
</g>
</g>
</svg>
